<?xml version="1.0" encoding="UTF-8" standalone="no"?>
<!-- Created with Inkscape (http://www.inkscape.org/) -->

<svg
   version="1.1"
   id="svg1"
   width="800"
   height="297"
   viewBox="0 0 800 297"
   sodipodi:docname="hotel_hilton.svg"
   inkscape:version="1.3.1 (9b9bdc1480, 2023-11-25, custom)"
   xmlns:inkscape="http://www.inkscape.org/namespaces/inkscape"
   xmlns:sodipodi="http://sodipodi.sourceforge.net/DTD/sodipodi-0.dtd"
   xmlns="http://www.w3.org/2000/svg"
   xmlns:svg="http://www.w3.org/2000/svg">
  <defs
     id="defs1" />
  <sodipodi:namedview
     id="namedview1"
     pagecolor="#505050"
     bordercolor="#eeeeee"
     borderopacity="1"
     inkscape:showpageshadow="0"
     inkscape:pageopacity="0"
     inkscape:pagecheckerboard="0"
     inkscape:deskcolor="#d1d1d1"
     inkscape:zoom="0.83173435"
     inkscape:cx="364.90016"
     inkscape:cy="167.12067"
     inkscape:window-width="1920"
     inkscape:window-height="1130"
     inkscape:window-x="0"
     inkscape:window-y="0"
     inkscape:window-maximized="1"
     inkscape:current-layer="g1" />
  <g
     inkscape:groupmode="layer"
     inkscape:label="Image"
     id="g1">
    <path
       style="fill:#202a25;fill-opacity:1;stroke:none"
       d="M 2e-6,0 V 297 H 800 V 0 H 2e-6 M 787,13 v 199 51 L 785.97223,282.39661 774,284 H 739 596 l -581.999998,-1 -1,-270 H 787 M 68.999998,68 v 8 c 15.26809,1.21672 11,16.12283 11,28 0,28.39235 -1,56.62637 -1,85 0,11.21678 5.08124,30.94673 -10,31 v 9 H 122 v -9 L 112.60339,216.77161 112,198 v -43 h 70 c 0,19.17162 2.98634,41.065 -0.14815,59.95602 -0.92293,5.56229 -16.5576,5.12336 -10.8233,12.44059 C 173.44556,230.48083 181.54182,229 185,229 h 40 v -9 l -11,-1 V 77 l 11,-1 V 68 H 188 L 172.3179,68.60339 170,76 l 12,1 v 61 H 112 V 77 l 10,-1 V 68 H 68.999998 M 273,68.55478 c -20.75807,2.23971 -17.53407,33.23862 3,31.10495 20.04022,-2.08235 17.08563,-33.27211 -3,-31.10495 M 322,68 v 7 l 9,1 v 99 l 0.94138,39.98456 L 322,229 h 49 L 362.05862,214.99536 362,111 V 81 L 360.97223,69.60339 351,68 h -29 m 82,22 v 25 h -22 v 10 h 21 c 0,21.7014 1,43.35895 1,65 0,9.74417 -2.06534,22.48532 3.85419,30.95987 9.04504,12.94913 31.10931,9.49095 44.14581,6.61575 7.86047,-1.73362 15.8884,-2.211 16,-11.57562 -8.61502,0 -21.80142,2.49905 -28.89505,-3.41898 C 431.75229,206.44688 434.1925,195.45444 433.98535,187 433.47961,166.36015 433,145.70844 433,125 h 27 V 115 H 433 V 82 l -29,8 m 118,22.46451 c -44.16949,7.94951 -65.04822,69.50657 -34.69907,103.49614 14.7739,16.54602 42.31943,18.19055 62.69907,14.42439 45.33948,-8.37875 61.05212,-69.38995 30.82642,-102.37038 C 566.79443,112.70384 541.74567,108.91074 522,112.46451 M 648,129 v -14 h -40 v 7 c 14.54321,2.74173 11,13.38893 11,26 v 72 c -7.05524,0.89243 -10.90643,1.10629 -11,9 h 50 c -0.0873,-7.3683 -3.19421,-8.13454 -10,-9 v -58 c 0,-6.21584 -2.12103,-17.30357 1.02777,-22.81482 7.99689,-13.99655 34.35639,-13.3269 41.05249,0.81482 3.90332,8.24352 2.91974,19.12138 2.91974,28 v 52 c -6.80585,0.86548 -9.91266,1.63171 -10,9 h 50 c -0.11786,-9.93939 -10.1474,-6.90144 -10.90973,-17 -2.32263,-30.76797 15.16779,-95.98514 -30.09027,-99.82639 -4.92047,-0.41761 -10.25659,0.73114 -15,1.98226 -11.05023,2.91461 -18.80164,10.5542 -29,14.84413 M 249,115 c 0.23474,7.14899 4.66254,7.49916 11,8 l -1,97 c -2.81876,0.36435 -15.83304,4.39302 -7.6821,8.39661 C 254.90224,230.15717 261.09357,229 265,229 c 10.95505,0 24.47821,2.11011 35,-1 L 289.3179,216.8912 289,185 v -70 h -40 m 281,5.3287 c 14.00104,-2.45956 23.87402,6.20829 28.57483,18.6713 6.76746,17.9422 6.14746,41.49213 2,60 C 558.23859,209.42554 552.55707,220.64034 541,222.6713 502.53735,229.43045 503.30258,169.13821 509.47839,145 512.22913,134.24884 517.88379,122.45717 530,120.3287 Z"
       id="path1" />
  </g>
</svg>
