<?xml version="1.0" encoding="UTF-8" standalone="no"?>
<svg
   version="1.1"
   width="1769"
   height="771"
   id="svg32"
   sodipodi:docname="mesto_kladno.svg"
   inkscape:version="1.3.1 (9b9bdc1480, 2023-11-25, custom)"
   xmlns:inkscape="http://www.inkscape.org/namespaces/inkscape"
   xmlns:sodipodi="http://sodipodi.sourceforge.net/DTD/sodipodi-0.dtd"
   xmlns="http://www.w3.org/2000/svg"
   xmlns:svg="http://www.w3.org/2000/svg">
  <defs
     id="defs32" />
  <sodipodi:namedview
     id="namedview32"
     pagecolor="#505050"
     bordercolor="#eeeeee"
     borderopacity="1"
     inkscape:showpageshadow="0"
     inkscape:pageopacity="0"
     inkscape:pagecheckerboard="0"
     inkscape:deskcolor="#d1d1d1"
     inkscape:zoom="0.26596947"
     inkscape:cx="513.21679"
     inkscape:cy="868.52072"
     inkscape:window-width="1920"
     inkscape:window-height="1130"
     inkscape:window-x="0"
     inkscape:window-y="0"
     inkscape:window-maximized="1"
     inkscape:current-layer="svg32" />
  <path
     d="M0 0 C3.63800131 0.4284584 5.32397404 1.97260842 7.8125 4.5625 C8.51761719 5.2946875 9.22273438 6.026875 9.94921875 6.78125 C12.29931052 9.32382548 14.57336902 11.91977399 16.828125 14.546875 C19.17646161 17.19931275 21.59462675 19.77509823 24.02563477 22.3515625 C30.31440945 29.01973917 36.32501417 35.79479478 42 43 C42.825 44.02996094 43.65 45.05992188 44.5 46.12109375 C69.11701235 76.96836563 90.65004166 110.23147631 107.90332031 145.75341797 C109.10681743 148.21881878 110.33122143 150.67335814 111.5546875 153.12890625 C128.77077909 188.00870164 141.16447963 225.16394169 150 263 C150.27682617 264.1844873 150.55365234 265.36897461 150.83886719 266.58935547 C170.03331957 350.32486458 168.60226672 440.03866893 114 613 C113.5565625 613.98613281 113.113125 614.97226562 112.65625 615.98828125 C106.25459158 630.13194532 98.8249042 643.59937904 91 657 C90.50242187 657.85980469 90.00484375 658.71960938 89.4921875 659.60546875 C78.27963788 678.94261983 65.66363677 697.3170876 52 715 C51.31260742 715.8957373 51.31260742 715.8957373 50.61132812 716.80957031 C40.09418084 730.49677973 28.78867548 743.40072206 17 756 C15.71069582 757.38258717 14.42164411 758.7654098 13.1328125 760.1484375 C9.75819741 763.76842557 6.37998021 767.38502116 3 771 C-0.27558905 770.41187824 -1.97211597 769.42648697 -4.36889648 767.140625 C-5.01423843 766.53049561 -5.65958038 765.92036621 -6.32447815 765.29174805 C-7.0204863 764.61797119 -7.71649445 763.94419434 -8.43359375 763.25 C-9.17347031 762.54335205 -9.91334686 761.8367041 -10.67564392 761.10864258 C-20.28226561 751.885987 -29.66905261 742.43862869 -39.0625 733 C-40.91187167 731.14559624 -42.7614798 729.29142827 -44.61132812 727.4375 C-49.07693727 722.96103681 -53.53966106 718.48171413 -58 714 C-57.05378263 712.88632765 -56.10616123 711.77384811 -55.15795898 710.66186523 C-54.63040512 710.04222397 -54.10285126 709.4225827 -53.55931091 708.78416443 C-51.50070259 706.42870362 -49.30283975 704.24474342 -47.0625 702.0625 C-42.82435489 697.86213925 -38.86924779 693.53743114 -35 689 C-34.15179687 688.0409375 -33.30359375 687.081875 -32.4296875 686.09375 C-24.35694599 676.91992955 -16.99155625 667.27475762 -9.77246094 657.41943359 C-8.66565263 655.90862501 -7.55496771 654.40063975 -6.43847656 652.89697266 C40.50482867 589.60033832 67.79709712 512.8707167 77 435 C77.11714355 434.0625293 77.23428711 433.12505859 77.35498047 432.15917969 C87.51840304 347.74085554 69.58211245 259.95539539 14 149 C13.51321777 148.1941748 13.02643555 147.38834961 12.52490234 146.55810547 C5.26054919 134.61201433 -2.63613144 123.19967503 -11 112 C-11.67675781 111.09145264 -11.67675781 111.09145264 -12.3671875 110.16455078 C-20.67741629 99.05591541 -29.62403013 88.51976069 -38.95703125 78.26171875 C-40.81818425 76.20128359 -42.63171242 74.10885682 -44.4375 72 C-48.70552005 67.08775051 -53.35919001 62.55677118 -58 58 C-53.07162095 52.05899542 -47.75147395 46.60616051 -42.2890625 41.15625 C-41.36209564 40.22832642 -40.43512878 39.30040283 -39.48007202 38.34436035 C-37.52674475 36.38956748 -35.57164326 34.43657184 -33.61523438 32.48486328 C-31.12860367 30.00392118 -28.64648041 27.51852579 -26.16568947 25.03174591 C-23.77175941 22.63329754 -21.37398713 20.23870533 -18.9765625 17.84375 C-18.0961026 16.96126587 -17.2156427 16.07878174 -16.3085022 15.16955566 C-11.3630533 10.24264457 -6.29981473 5.54186484 -1 1 C-0.67 0.67 -0.34 0.34 0 0 Z "
     fill="#5DC3F0"
     transform="translate(1552,0)"
     id="path1"
     style="fill:#202a25;fill-opacity:1" />
  <path
     d="M0 0 C23.43 0 46.86 0 71 0 C82.03883564 22.03756246 82.03883564 22.03756246 86.81445312 31.58007812 C90.04740894 38.04005864 93.2807685 44.49983439 96.5168457 50.95825195 C99.1317094 56.17695142 101.74450094 61.39668385 104.35597801 66.61707878 C105.34258507 68.5884739 106.32988439 70.55952277 107.31795692 72.53018379 C107.78733366 73.46644033 108.2567104 74.40269688 108.74031067 75.36732483 C109.14686292 76.17772752 109.55341516 76.98813021 109.97228718 77.82309055 C116.12425433 90.15848447 122.04897292 102.55694337 128 115 C135.92 130.84 143.84 146.68 152 163 C152 109.21 152 55.42 152 0 C174.77 0 197.54 0 221 0 C221 97.68 221 195.36 221 296 C197.24 296 173.48 296 149 296 C137.55817432 274.26053121 137.55817432 274.26053121 134.1875 267.25390625 C133.34807735 265.52599523 132.50855394 263.79813316 131.66894531 262.0703125 C131.23634399 261.17731445 130.80374268 260.28431641 130.35803223 259.36425781 C122.78145693 243.73301682 115.10203057 228.15494219 107.328125 212.62109375 C106.95414078 211.87375032 106.58015656 211.1264069 106.19483948 210.3564167 C102.45642176 202.88745782 98.71305216 195.4209937 94.96445465 187.95713902 C93.20928295 184.46170845 91.4557918 180.96543715 89.703125 177.46875 C89.366866 176.79812468 89.03060699 176.12749935 88.68415833 175.43655205 C83.78891331 165.66619679 78.99490537 155.85288887 74.34698486 145.96179199 C73.94469666 145.10879517 73.54240845 144.25579834 73.12792969 143.37695312 C72.61537628 142.28114929 72.61537628 142.28114929 72.09246826 141.16320801 C70.84684247 138.69673115 69.44534357 136.35403147 68 134 C68.02978156 134.55667107 68.05956312 135.11334213 68.09024715 135.68688202 C68.99694058 153.22664486 69.13592016 170.74153908 69.10139394 188.29966927 C69.09502335 192.10321994 69.09454602 195.90677196 69.09336853 199.71032715 C69.09029473 206.87064401 69.08213625 214.03094509 69.07201904 221.19125509 C69.05861133 230.8968439 69.05332598 240.60243721 69.04751682 250.30803299 C69.03819237 265.53870041 69.0182476 280.76933459 69 296 C46.23 296 23.46 296 0 296 C0 198.32 0 100.64 0 0 Z M153 165 C154 167 154 167 154 167 Z "
     fill="#174290"
     transform="translate(1059,239)"
     id="path2"
     style="fill:#202a25;fill-opacity:1" />
  <path
     d="M0 0 C9.50374308 7.34660295 17.68903894 15.56780087 24 25.8125 C24.34772461 26.37001953 24.69544922 26.92753906 25.05371094 27.50195312 C42.20903149 55.32541317 49.06930087 89.09325659 49.203125 121.50390625 C49.20882507 122.60685532 49.21452515 123.70980438 49.22039795 124.84617615 C49.2298003 127.17665667 49.23636285 129.50715021 49.24023438 131.83764648 C49.2498295 135.31324228 49.28085326 138.78821718 49.3125 142.26367188 C49.40603684 161.84689316 48.18149446 181.51739154 43.3125 200.5625 C42.93121948 202.09088501 42.93121948 202.09088501 42.54223633 203.65014648 C36.66044571 226.3129093 27.19473207 246.00362048 12 263.8125 C11.41863281 264.49699219 10.83726562 265.18148438 10.23828125 265.88671875 C-5.57752499 282.97735069 -29.65226045 291.94755061 -52.55004883 292.92089844 C-81.3379359 293.56823458 -108.39051761 288.45725179 -130.2109375 268.484375 C-154.88039428 244.85145002 -164.99509096 212.7841574 -170 179.8125 C-170.16991455 178.7289624 -170.16991455 178.7289624 -170.34326172 177.62353516 C-176.83024112 134.77667756 -175.47456054 83.50031222 -157 43.8125 C-156.46632813 42.63816406 -155.93265625 41.46382813 -155.3828125 40.25390625 C-143.90200987 16.1018952 -125.54197473 -4.00726914 -100 -13.1875 C-66.940629 -23.53043641 -28.4900711 -20.51723991 0 0 Z M-82.8125 59.5 C-96.54086109 76.80546926 -98.43221239 102.4826121 -99 123.8125 C-99.02191406 124.61365234 -99.04382812 125.41480469 -99.06640625 126.24023438 C-101.12239518 174.56601503 -101.12239518 174.56601503 -82 216.8125 C-75.5280051 222.69613173 -68.47970372 224.32238694 -59.8359375 224.12109375 C-50.2774306 223.08098074 -43.51288835 217.97618312 -37.34765625 210.921875 C-16.8791129 183.63048387 -22.00134486 129.73863831 -26.41113281 97.83837891 C-29.07252284 81.37139692 -33.82197268 64.21470169 -47.91015625 53.96875 C-59.81953923 47.37963343 -73.61231726 49.74582776 -82.8125 59.5 Z "
     fill="#174290"
     transform="translate(1491,249.1875)"
     id="path3"
     style="fill:#202a25;fill-opacity:1" />
  <path
     d="M0 0 C88.70757299 0 88.70757299 0 106.3125 4.25 C107.22636475 4.46543457 108.14022949 4.68086914 109.08178711 4.90283203 C139.75030095 12.44528626 163.85084298 30.68380085 180.16015625 57.4921875 C187.71602367 70.48792051 192.13882117 85.05911188 195.3125 99.6875 C195.53341309 100.69828613 195.53341309 100.69828613 195.75878906 101.72949219 C198.67471686 116.3774199 199.37978621 131.17067941 199.3125 146.0625 C199.31067719 146.90762146 199.30885437 147.75274292 199.30697632 148.62347412 C199.20848431 175.90158996 195.88273849 202.77121975 185 228 C184.24976563 229.74990234 184.24976563 229.74990234 183.484375 231.53515625 C170.81553416 258.8100636 148.75300363 276.62381436 121.2890625 287.46484375 C82.53040396 301.29521106 40.24423767 296 0 296 C0 198.32 0 100.64 0 0 Z M69 64 C69 119.44 69 174.88 69 232 C86.30261184 228.94659791 100.42106213 226.01378388 111.59765625 212.05078125 C124.25931989 193.53442078 125.41717712 170.51956829 125.3125 148.8125 C125.31034485 148.00428802 125.3081897 147.19607605 125.30596924 146.3633728 C125.19865057 121.21885675 122.97193512 95.17503399 105.3125 75.6875 C94.97689591 66.00780924 82.68593699 64 69 64 Z "
     fill="#174290"
     transform="translate(823,239)"
     id="path4"
     style="fill:#202a25;fill-opacity:1" />
  <path
     d="M0 0 C22.77 0 45.54 0 69 0 C69.33 44.88 69.66 89.76 70 136 C78.47792938 117.91375066 86.91767921 99.84648067 95.15292358 81.65420532 C102.24869266 65.98956353 109.5191576 50.40488286 116.765625 34.80957031 C118.86654382 30.28801779 120.964903 25.7652818 123.0625 21.2421875 C124.24992096 18.682255 125.43745367 16.12237435 126.625 13.5625 C127.16334473 12.40194092 127.70168945 11.24138184 128.25634766 10.0456543 C128.984104 8.47811401 128.984104 8.47811401 129.7265625 6.87890625 C130.14502441 5.9772876 130.56348633 5.07566895 130.99462891 4.14672852 C131.64581933 2.75626776 132.31335161 1.37329678 133 0 C157.09 0 181.18 0 206 0 C203.47330599 6.31673503 200.92988087 12.49985829 198.05078125 18.64453125 C197.49633835 19.83675041 197.49633835 19.83675041 196.93069458 21.05305481 C196.13876374 22.75532191 195.34566493 24.45704606 194.55148315 26.15826416 C192.41168188 30.7422952 190.28080706 35.33047728 188.1484375 39.91796875 C187.49695992 41.3185553 187.49695992 41.3185553 186.83232117 42.74743652 C182.67259726 51.69375663 178.55048458 60.65711787 174.4375 69.625 C169.27679761 80.87379922 164.10383869 92.11678247 158.91162109 103.35107422 C157.36458618 106.69894384 155.82068287 110.04822713 154.27978516 113.39892578 C151.09634498 120.31841452 147.90409753 127.23033103 144.609375 134.09765625 C144.12654053 135.11738525 143.64370605 136.13711426 143.14624023 137.18774414 C142.29550508 138.98156041 141.43172506 140.76928772 140.55102539 142.54858398 C140.19000732 143.31630127 139.82898926 144.08401855 139.45703125 144.875 C139.14741455 145.51179687 138.83779785 146.14859375 138.51879883 146.8046875 C137.18502952 152.44857155 139.43176409 157.50725081 141.8515625 162.5234375 C142.14193893 163.13325974 142.43231537 163.74308197 142.73149109 164.37138367 C143.35906477 165.68712186 143.99082827 167.00086832 144.62637329 168.31277466 C146.36020409 171.89324148 148.06194673 175.48899446 149.76953125 179.08203125 C150.12341415 179.82430466 150.47729706 180.56657806 150.84190369 181.3313446 C154.42824586 188.86522379 157.87833446 196.45835881 161.3125 204.0625 C166.44328605 215.4039327 171.62655222 226.71987213 176.85220337 238.01791382 C179.86593741 244.53505058 182.87373156 251.05493296 185.88122559 257.57495117 C186.63073243 259.19957779 187.38049073 260.82408843 188.13049316 262.44848633 C190.30091519 267.15001069 192.46565384 271.85406647 194.62158203 276.56225586 C195.28557811 278.00996118 195.95156473 279.45675534 196.61962891 280.90258789 C197.53559785 282.8857931 198.44446996 284.87209762 199.3515625 286.859375 C199.86541504 287.97795898 200.37926758 289.09654297 200.90869141 290.24902344 C202 293 202 293 202 296 C176.92 296 151.84 296 126 296 C117.00158422 276.97895852 108.02072625 257.95392615 99.1796875 238.859375 C96.96386206 234.07429651 94.73967219 229.29323729 92.5078125 224.515625 C92.20971176 223.87744843 91.91161102 223.23927185 91.60447693 222.58175659 C90.19396936 219.56272527 88.7826525 216.54407648 87.37036133 213.52587891 C81.53429844 201.03804594 75.77668445 188.51614964 70 176 C69.67 215.6 69.34 255.2 69 296 C46.23 296 23.46 296 0 296 C0 198.32 0 100.64 0 0 Z "
     fill="#174290"
     transform="translate(184,239)"
     id="path5"
     style="fill:#202a25;fill-opacity:1" />
  <path
     d="M0 0 C25.74 0 51.48 0 78 0 C87.19258942 33.32313665 87.19258942 33.32313665 90.8203125 46.88671875 C91.24108602 48.45659879 91.66195759 50.02645256 92.08291626 51.59628296 C92.9708832 54.90843749 93.85821734 58.22076054 94.74499512 61.53323364 C96.17300737 66.867412 97.60252348 72.20118672 99.03222656 77.53491211 C100.78495803 84.07407917 102.53736839 90.61333211 104.28935242 97.15269947 C107.77241358 110.15316347 111.25967567 123.15249764 114.74839783 136.15144348 C115.19318701 137.80872584 115.63797563 139.46600835 116.08276367 141.12329102 C116.30282043 141.94321439 116.52287718 142.76313776 116.74960232 143.6079073 C118.30678901 149.4102222 119.86317882 155.21275047 121.41918945 161.01538086 C122.33021724 164.412604 123.24127091 167.80982019 124.15234375 171.20703125 C124.38052858 172.05790503 124.60871342 172.9087788 124.84381294 173.78543663 C128.0198863 185.62781511 131.20080395 197.46888391 134.38524055 209.30901623 C136.80730913 218.31475496 139.22748843 227.32100014 141.64648247 236.32756519 C143.12009934 241.81376849 144.59476974 247.29968399 146.07189941 252.78494263 C147.45564303 257.92344213 148.83674642 263.06264397 150.21586418 268.20238686 C150.72578732 270.10085011 151.23669906 271.99904815 151.74865913 273.89696312 C152.45136386 276.5025502 153.15054465 279.10905852 153.84887695 281.71582031 C154.15639956 282.85105936 154.15639956 282.85105936 154.47013474 284.00923252 C155.53957078 288.01740127 156.31487167 291.88923004 157 296 C133.24 296 109.48 296 85 296 C81.37 280.16 77.74 264.32 74 248 C38.855 247.505 38.855 247.505 3 247 C1.68 253.27 0.36 259.54 -1 266 C-2.20546474 271.21619318 -3.42547678 276.42293479 -4.6875 281.625 C-4.99820087 282.9270466 -5.30874776 284.22912995 -5.61914062 285.53125 C-6.0609668 287.36042969 -6.0609668 287.36042969 -6.51171875 289.2265625 C-6.77428467 290.31533691 -7.03685059 291.40411133 -7.30737305 292.52587891 C-8 295 -8 295 -9 296 C-11.17805719 296.09429342 -13.3592128 296.11742538 -15.53930664 296.11352539 C-16.22220261 296.11367142 -16.90509857 296.11381744 -17.60868835 296.1139679 C-19.87587614 296.11326876 -22.14298274 296.1054764 -24.41015625 296.09765625 C-25.97814387 296.09579207 -27.54613207 296.09436817 -29.11412048 296.09336853 C-33.24876503 296.08954334 -37.38337466 296.07971306 -41.51800537 296.06866455 C-45.73400398 296.05845044 -49.95000822 296.05387091 -54.16601562 296.04882812 C-62.44402647 296.03809079 -70.7220089 296.02101436 -79 296 C-78.41449058 291.47235387 -77.61180301 287.14176866 -76.43139648 282.73291016 C-76.1075296 281.51547119 -75.78366272 280.29803223 -75.44998169 279.04370117 C-75.09044131 277.70879766 -74.7308088 276.37391895 -74.37109375 275.0390625 C-73.99029978 273.61426494 -73.60984683 272.1893762 -73.22970581 270.7644043 C-72.18989548 266.87106617 -71.14486919 262.97914499 -70.09885025 259.08747101 C-69.20501057 255.75934903 -68.31421825 252.43041452 -67.42342281 249.10147667 C-59.42894286 219.22703937 -51.37469631 189.36854281 -43.31201172 159.51245117 C-42.29649597 155.75180481 -41.28102819 151.9911455 -40.265625 148.23046875 C-40.0127132 147.29378042 -39.75980141 146.35709209 -39.49922562 145.39201927 C-35.68326977 131.25715321 -31.88066431 117.11873955 -28.08680153 102.97792816 C-27.2370573 99.81077866 -26.3870783 96.64369226 -25.53703308 93.47662354 C-23.09670219 84.38404795 -20.65693911 75.29132432 -18.22150993 66.19743443 C-17.21959149 62.45789618 -16.21604796 58.71879524 -15.21215057 54.97978783 C-14.75777033 53.28610896 -14.30403375 51.59225721 -13.85111237 49.89818764 C-9.39137068 33.21931369 -4.67516391 16.62280503 0 0 Z M38 72 C35.8951707 74.1048293 36.08555186 78.3094792 35.65234375 81.2109375 C35.37844643 82.99019498 35.10426297 84.76940843 34.82983398 86.54858398 C34.68488495 87.49675995 34.53993591 88.44493591 34.39059448 89.42184448 C31.82540148 106.14112527 29.05016655 122.81128719 25.9375 139.4375 C25.77079803 140.32839325 25.60409607 141.2192865 25.43234253 142.13717651 C23.02221124 154.96678552 20.47679895 167.76587648 17.72631836 180.52709961 C17.4969458 181.59968018 17.26757324 182.67226074 17.03125 183.77734375 C16.83080078 184.69765381 16.63035156 185.61796387 16.42382812 186.56616211 C15.88562797 189.24503852 15.88562797 189.24503852 16 193 C30.52 193 45.04 193 60 193 C59.27499958 185.19733395 59.27499958 185.19733395 58.00366211 177.59350586 C57.80905899 176.64954453 57.61445587 175.70558319 57.41395569 174.73301697 C57.20387375 173.73701981 56.99379181 172.74102264 56.77734375 171.71484375 C56.31969103 169.4922819 55.86251766 167.26962132 55.40576172 165.046875 C55.16597595 163.88736328 54.92619019 162.72785156 54.67913818 161.53320312 C50.49602993 141.2521338 46.6532438 120.94749311 43.375 100.5 C43.20733124 99.45447968 43.03966248 98.40895935 42.86691284 97.33175659 C41.51984739 88.89612153 40.18882403 80.45954112 39 72 C38.67 72 38.34 72 38 72 Z "
     fill="#174290"
     transform="translate(639,239)"
     id="path6"
     style="fill:#202a25;fill-opacity:1" />
  <path
     d="M0 0 C22.77 0 45.54 0 69 0 C69 74.91 69 149.82 69 227 C86.82 227 104.64 227 123 227 C123 249.77 123 272.54 123 296 C82.41 296 41.82 296 0 296 C0 198.32 0 100.64 0 0 Z "
     fill="#174290"
     transform="translate(416,239)"
     id="path7"
     style="fill:#202a25;fill-opacity:1" />
  <path
     d="M0 0 C31.35 0 62.7 0 95 0 C95 49.5 95 99 95 150 C63.65 150 32.3 150 0 150 C0 100.5 0 51 0 0 Z "
     fill="#5DC3F0"
     transform="translate(0,304)"
     id="path8"
     style="fill:#202a25;fill-opacity:1" />
  <path
     d="M0 0 C4.62 0 9.24 0 14 0 C15.41305193 4.12375227 16.82112439 8.2485951 18.2175293 12.37792969 C18.69296805 13.7792568 19.17110699 15.17967104 19.65209961 16.57910156 C20.34698262 18.60241618 21.0317645 20.62892432 21.71484375 22.65625 C22.12855225 23.87119141 22.54226074 25.08613281 22.96850586 26.33789062 C24.07811751 30.27734026 24.5899992 33.93530307 25 38 C25.66 38 26.32 38 27 38 C27.11786865 36.83146484 27.2357373 35.66292969 27.35717773 34.45898438 C27.87561086 30.33418065 28.9425133 26.59920145 30.28515625 22.65625 C30.50570175 22.00168823 30.72624725 21.34712646 30.95347595 20.67272949 C31.64938476 18.61266314 32.35571758 16.55635774 33.0625 14.5 C33.54041216 13.09138267 34.0176319 11.68253021 34.49414062 10.2734375 C35.65352732 6.84568554 36.82698925 3.42323283 38 0 C42.95 0 47.9 0 53 0 C53.99 18.48 54.98 36.96 56 56 C52.37 56 48.74 56 45 56 C44.04614671 48.27378838 43.67446368 40.59621323 43.39453125 32.8203125 C43.33845703 31.41652344 43.33845703 31.41652344 43.28125 29.984375 C43.25095703 29.14616211 43.22066406 28.30794922 43.18945312 27.44433594 C42.99219975 24.89936067 42.54906096 22.49078059 42 20 C41.64172119 21.05501709 41.28344238 22.11003418 40.91430664 23.19702148 C39.58849157 27.09858674 38.25882857 30.99883127 36.92797852 34.89868164 C36.35172591 36.58907679 35.77652768 38.27983175 35.20239258 39.97094727 C34.37856336 42.39694304 33.55099255 44.82163377 32.72265625 47.24609375 C32.46533218 48.00651474 32.20800812 48.76693573 31.94288635 49.55039978 C30.11387171 54.88612829 30.11387171 54.88612829 29 56 C26.32941149 56.14115161 23.67567762 56.04247107 21 56 C18.02864548 48.4610293 15.69019149 40.74297203 13.3125 33 C11.889375 28.38 10.46625 23.76 9 19 C8.34 31.21 7.68 43.42 7 56 C3.37 56 -0.26 56 -4 56 C-3.59474767 49.14959633 -3.185703 42.29943339 -2.77319336 35.44946289 C-2.6334867 33.1207487 -2.49480354 30.79197286 -2.35717773 28.46313477 C-2.15880209 25.10936898 -1.95670667 21.75584453 -1.75390625 18.40234375 C-1.6934462 17.36665756 -1.63298615 16.33097137 -1.57069397 15.26390076 C-1.25633141 10.12561801 -0.82573307 5.08215335 0 0 Z "
     fill="#5DC3F0"
     transform="translate(187,619)"
     id="path9"
     style="fill:#202a25;fill-opacity:1" />
  <path
     d="M0 0 C3.96 0 7.92 0 12 0 C14.79154886 3.1558079 16.18934 5.32911697 18 9 C19.19383501 11.02581071 20.39882486 13.04507773 21.61328125 15.05859375 C22.84925526 17.1832108 24.08229261 19.30953874 25.3125 21.4375 C25.94478516 22.52482422 26.57707031 23.61214844 27.22851562 24.73242188 C31.82287645 32.6457529 31.82287645 32.6457529 33 35 C33.33 23.45 33.66 11.9 34 0 C37.3 0 40.6 0 44 0 C44 18.48 44 36.96 44 56 C40.04 56 36.08 56 32 56 C30.18676951 52.8337498 28.3744129 49.66700413 26.5625 46.5 C26.06556641 45.63246094 25.56863281 44.76492188 25.05664062 43.87109375 C20.32830241 35.60393638 15.6696012 27.30151324 11 19 C10.67 31.21 10.34 43.42 10 56 C6.7 56 3.4 56 0 56 C0 37.52 0 19.04 0 0 Z "
     fill="#5DC3F0"
     transform="translate(897,619)"
     id="path10"
     style="fill:#202a25;fill-opacity:1" />
  <path
     d="M0 0 C6.71102846 5.83509101 9.45443417 12.19087656 10.27734375 20.953125 C10.55900044 29.74081368 9.44138539 37.44302049 3.75 44.375 C-0.7948394 49.14130403 -6.10474204 52.67089926 -12.8203125 53.23828125 C-21.15513574 53.42546995 -27.63016169 52.93456145 -34 47.19921875 C-40.34953878 40.38669277 -42.98683393 33.25574449 -43 24 C-42.30650104 14.22796918 -39.80261402 7.24349114 -32.5 0.625 C-23.22092559 -6.77020185 -9.65225914 -6.90877469 0 0 Z M-28 11 C-31.29487093 17.26142732 -32.16818427 24.3018676 -30.4609375 31.16796875 C-28.77623069 36.10175299 -26.4957956 40.19269974 -22.1875 43.3125 C-17.97697873 44.63580668 -14.35184426 44.59732653 -10.3125 42.8125 C-6.12870969 39.533313 -3.6642506 36.02144577 -2 31 C-1.30076907 23.82607228 -1.22010454 17.25637869 -5 11 C-8.74905148 6.66327463 -8.74905148 6.66327463 -13.91796875 4.69140625 C-20.34859682 4.32615543 -24.06066314 5.81160511 -28 11 Z "
     fill="#5DC3F0"
     transform="translate(598,623)"
     id="path11"
     style="fill:#202a25;fill-opacity:1" />
  <path
     d="M0 0 C7.00520099 6.64196835 9.11382003 13.32122012 9.4375 22.875 C9.24467505 31.36848003 7.28726973 39.89764996 1 46 C-6.84514991 51.9691358 -14.37097596 52.9016373 -24 52 C-31.25553353 50.27612888 -35.8525698 46.05817041 -40 40 C-44.49798966 32.01969577 -44.44714162 20.97661315 -42.30859375 12.14453125 C-41.38470971 9.89860393 -40.36139198 8.00826457 -39 6 C-38.56429688 5.35675781 -38.12859375 4.71351563 -37.6796875 4.05078125 C-33.42320672 -1.49659944 -28.41547796 -4.08044824 -21.75 -5.875 C-13.90729793 -6.1364234 -6.06004043 -5.33860705 0 0 Z M-29 10 C-32.66082037 17.09937665 -33.0236865 24.1293663 -30.75 31.6875 C-29.04473949 36.3092341 -27.06984995 39.69895146 -22.8125 42.375 C-18.67055516 43.29543219 -15.07735683 43.22751412 -11 42 C-6.30043457 38.94329113 -4.4371826 35.36504815 -3 30 C-2.20779704 22.05954705 -2.00660626 14.55897924 -7 8 C-9.28979427 5.30612439 -10.82581506 4.2276481 -14.296875 3.5546875 C-20.87913524 3.09592391 -25.0395657 4.64241249 -29 10 Z "
     fill="#5DC3F0"
     transform="translate(425,624)"
     id="path12"
     style="fill:#202a25;fill-opacity:1" />
  <path
     d="M0 0 C6.25927891 5.71993062 9.52861392 12.6880254 10.16015625 21.14453125 C10.48129197 30.01066971 9.13416292 37.91736993 3.4375 44.9375 C-2.48541334 50.95751028 -8.70133428 53.14940474 -17.0625 53.5 C-25.1950692 53.15637032 -30.62220485 50.76325478 -36.375 45 C-42.1263838 37.97435751 -43.32460303 30.27540554 -43 21.375 C-41.9283437 11.94442457 -38.33324557 5.25461163 -30.9140625 -0.6640625 C-21.85957113 -6.9837279 -8.89027402 -6.3283456 0 0 Z M-26 8 C-31.0012156 15.01865512 -31.62834884 21.59874327 -31 30 C-29.75912114 36.24645799 -27.1502988 39.38383276 -22 43 C-18.89046621 44.5547669 -16.43733239 44.28644437 -13 44 C-8.18716214 41.54639639 -5.63411105 38.68286409 -3 34 C-0.86380225 27.3208217 -1.0303049 19.49212095 -3.625 13 C-5.7108885 8.9953848 -7.77143277 6.83503861 -12 5 C-17.28341542 4.19721956 -21.85853834 4.33184825 -26 8 Z "
     fill="#5DC3F0"
     transform="translate(1158,623)"
     id="path13"
     style="fill:#202a25;fill-opacity:1" />
  <path
     d="M0 0 C3.90867516 3.48071802 5.79865431 6.94627395 6.3125 12.1875 C5.85326715 17.79014079 3.98822496 22.23268893 -0.25 26 C-0.8275 26.33 -1.405 26.66 -2 27 C-1.38382813 27.69480469 -0.76765625 28.38960937 -0.1328125 29.10546875 C2.13836671 32.1877834 3.08046176 34.64783852 4.125 38.3125 C4.61613281 40.0140625 4.61613281 40.0140625 5.1171875 41.75 C6.13306863 45.48988098 7.11237638 49.22759963 8 53 C4.04 53 0.08 53 -4 53 C-4.39832031 51.65164063 -4.79664063 50.30328125 -5.20703125 48.9140625 C-5.74161667 47.15086849 -6.27680424 45.38785698 -6.8125 43.625 C-7.07353516 42.73554687 -7.33457031 41.84609375 -7.60351562 40.9296875 C-7.86455078 40.07890625 -8.12558594 39.228125 -8.39453125 38.3515625 C-8.63018799 37.56604004 -8.86584473 36.78051758 -9.10864258 35.97119141 C-9.94759264 33.65245591 -9.94759264 33.65245591 -13 32 C-15.64 31.67 -18.28 31.34 -21 31 C-21 38.26 -21 45.52 -21 53 C-24.63 53 -28.26 53 -32 53 C-32 34.85 -32 16.7 -32 -2 C-22.48957697 -3.90208461 -8.60838247 -5.34313395 0 0 Z M-21 6 C-21 11.28 -21 16.56 -21 22 C-14.19078572 22.5126896 -14.19078572 22.5126896 -7.9375 20.375 C-5.54548978 17.44285843 -5 15.77982428 -5 12 C-6.73344875 8.27156036 -6.73344875 8.27156036 -10 6 C-13.67015275 5.8622315 -17.32611348 5.95728039 -21 6 Z "
     fill="#5DC3F0"
     transform="translate(542,622)"
     id="path14"
     style="fill:#202a25;fill-opacity:1" />
  <path
     d="M0 0 C3.63 0 7.26 0 11 0 C11.33 7.59 11.66 15.18 12 23 C13.505625 20.875625 15.01125 18.75125 16.5625 16.5625 C17.49335642 15.27890586 18.42537413 13.99615167 19.359375 12.71484375 C20.93880443 10.53115447 22.37266784 8.38081074 23.765625 6.06640625 C25.36850416 3.53660959 26.57644921 1.76964935 29 0 C33.4346158 -0.72519011 37.55245402 -0.54173116 42 0 C40.49499231 4.7452007 37.85377759 7.83788647 34.625 11.5 C33.19039832 13.15324418 31.75756938 14.80740463 30.33691406 16.47265625 C29.1142369 17.86949123 27.821673 19.20434684 26.5234375 20.53125 C24.70103924 22.90432138 24.70103924 22.90432138 25.34765625 25.68359375 C27.6919429 30.3887932 30.51607407 34.69792159 33.4375 39.0625 C34.60355171 40.82376403 35.76893747 42.58546917 36.93359375 44.34765625 C37.44978271 45.12117432 37.96597168 45.89469238 38.49780273 46.69165039 C43 53.60994637 43 53.60994637 43 56 C38.48655961 56.71027818 34.49001988 56.95221283 30 56 C26.37583449 52.72378405 24.38810459 48.81998732 22.1875 44.5 C21.57841797 43.40300781 20.96933594 42.30601562 20.34179688 41.17578125 C18.8485202 38.47142192 17.40555567 35.75067784 16 33 C12.96843687 35.6075365 12.96843687 35.6075365 11.45410156 39.19824219 C11.4331543 39.97329102 11.41220703 40.74833984 11.390625 41.546875 C11.35839844 42.39121094 11.32617188 43.23554687 11.29296875 44.10546875 C11.27169922 45.41451172 11.27169922 45.41451172 11.25 46.75 C11.22035156 47.63816406 11.19070313 48.52632812 11.16015625 49.44140625 C11.08964939 51.62711897 11.04253766 53.81356411 11 56 C7.37 56 3.74 56 0 56 C0 37.52 0 19.04 0 0 Z "
     fill="#5DC3F0"
     transform="translate(636,619)"
     id="path15"
     style="fill:#202a25;fill-opacity:1" />
  <path
     d="M0 0 C4.62 0 9.24 0 14 0 C16.40234375 7.20703125 18.8046875 14.4140625 21.20703125 21.62109375 C21.46788513 22.40349426 21.72873901 23.18589478 21.99749756 23.99200439 C22.52608629 25.57809664 23.05428327 27.1643195 23.58209229 28.75067139 C24.95795201 32.88414514 26.3413816 37.01485626 27.73730469 41.14160156 C28.0160141 41.96870636 28.29472351 42.79581116 28.58187866 43.64797974 C29.11574871 45.23171242 29.65196783 46.81465569 30.19082642 48.396698 C32 53.77519588 32 53.77519588 32 56 C28.04 56 24.08 56 20 56 C18.35 51.38 16.7 46.76 15 42 C9.72 42 4.44 42 -1 42 C-1.639375 44.124375 -2.27875 46.24875 -2.9375 48.4375 C-4.875 54.875 -4.875 54.875 -6 56 C-7.85287502 56.07226502 -9.70833878 56.0838122 -11.5625 56.0625 C-12.57441406 56.05347656 -13.58632813 56.04445313 -14.62890625 56.03515625 C-15.41136719 56.02355469 -16.19382812 56.01195312 -17 56 C-15.5837408 49.11970146 -13.68601964 42.51993012 -11.5234375 35.83984375 C-11.19332672 34.80936417 -10.86321594 33.77888458 -10.52310181 32.71717834 C-9.47747586 29.45607033 -8.4263316 26.19677251 -7.375 22.9375 C-6.66109167 20.71431042 -5.94754633 18.49100424 -5.234375 16.26757812 C-3.49377819 10.84369468 -1.74823321 5.42142665 0 0 Z M6 12 C5.16247839 14.95716407 4.33069969 17.915913 3.5 20.875 C3.26152344 21.71675781 3.02304687 22.55851563 2.77734375 23.42578125 C2.55175781 24.23144531 2.32617188 25.03710938 2.09375 25.8671875 C1.88427734 26.61081543 1.67480469 27.35444336 1.45898438 28.12060547 C0.92091777 30.00137827 0.92091777 30.00137827 1 32 C4.96 32 8.92 32 13 32 C11.20532905 25.24861881 9.29690099 18.59748156 7 12 C6.67 12 6.34 12 6 12 Z "
     fill="#5DC3F0"
     transform="translate(746,619)"
     id="path16"
     style="fill:#202a25;fill-opacity:1" />
  <path
     d="M0 0 C12.87 0 25.74 0 39 0 C39 8.52765243 38.66833684 10.70009214 33.875 16.75 C32.78065693 18.20984831 31.68966907 19.67221613 30.6015625 21.13671875 C30.02051758 21.91063965 29.43947266 22.68456055 28.84082031 23.48193359 C25.48734362 28.06916948 22.38046804 32.82162204 19.25 37.5625 C17.1875 40.676875 15.125 43.79125 13 47 C21.91 47 30.82 47 40 47 C40 49.97 40 52.94 40 56 C26.14 56 12.28 56 -2 56 C-2 47.00545384 -2 47.00545384 0.1328125 44.23828125 C0.83809082 43.28683228 0.83809082 43.28683228 1.55761719 42.31616211 C2.07485352 41.65495361 2.59208984 40.99374512 3.125 40.3125 C4.21923305 38.84344032 5.31022671 37.37196374 6.3984375 35.8984375 C6.97948242 35.11823242 7.56052734 34.33802734 8.15917969 33.53417969 C11.50108111 28.93352494 14.6156889 24.18086127 17.75 19.4375 C20.84375 14.7659375 20.84375 14.7659375 24 10 C16.08 10 8.16 10 0 10 C0 6.7 0 3.4 0 0 Z "
     fill="#5DC3F0"
     transform="translate(995,619)"
     id="path17"
     style="fill:#202a25;fill-opacity:1" />
  <path
     d="M0 0 C10.89 0 21.78 0 33 0 C33 3.3 33 6.6 33 10 C25.74 10 18.48 10 11 10 C11 14.29 11 18.58 11 23 C17.93 23 24.86 23 32 23 C32 25.97 32 28.94 32 32 C25.07 32 18.14 32 11 32 C11 36.95 11 41.9 11 47 C18.59 47 26.18 47 34 47 C34 49.97 34 52.94 34 56 C22.78 56 11.56 56 0 56 C0 37.52 0 19.04 0 0 Z "
     fill="#5DC3F0"
     transform="translate(254,619)"
     id="path18"
     style="fill:#202a25;fill-opacity:1" />
  <path
     d="M0 0 C3.63 0 7.26 0 11 0 C13.23209581 4.96620047 14.97837936 9.89193228 16.48046875 15.12109375 C16.80704216 16.23823509 16.80704216 16.23823509 17.14021301 17.37794495 C17.8267607 19.72995356 18.50722604 22.0836701 19.1875 24.4375 C19.65519608 26.04373715 20.12329127 27.64985815 20.59179688 29.25585938 C21.7324805 33.16924595 22.86771706 37.08417494 24 41 C24.28721924 40.04222656 24.57443848 39.08445312 24.87036133 38.09765625 C25.9467127 34.51105106 27.02667038 30.92553991 28.10766602 27.34033203 C28.57315388 25.79472529 29.03769081 24.24883179 29.5012207 22.70263672 C30.17142971 20.46764479 30.84516369 18.23374019 31.51953125 16 C31.72278519 15.31945557 31.92603912 14.63891113 32.13545227 13.93774414 C33.56753599 9.21084017 35.22823161 4.61065013 37 0 C40.96 0 44.92 0 49 0 C46.96772006 6.8999745 44.78928115 13.72601012 42.4609375 20.53125 C42.13461334 21.48898315 41.80828918 22.44671631 41.47207642 23.43347168 C40.78891236 25.43707039 40.10485073 27.44036327 39.41992188 29.44335938 C38.36861075 32.51869005 37.32083392 35.59520913 36.2734375 38.671875 C35.60697887 40.625071 34.9403195 42.57819851 34.2734375 44.53125 C33.95990326 45.45200317 33.64636902 46.37275635 33.32333374 47.32141113 C33.03278107 48.16989624 32.74222839 49.01838135 32.44287109 49.89257812 C32.18766693 50.63963013 31.93246277 51.38668213 31.66952515 52.15637207 C31 54 31 54 30 56 C25.71 56 21.42 56 17 56 C15.38051927 51.16669902 13.76320543 46.33267973 12.14770508 41.49804688 C11.60041629 39.86113986 11.05258457 38.22441424 10.50415039 36.58789062 C7.65831878 28.09473964 4.83232811 19.59470218 2.10546875 11.0625 C1.89134842 10.40628662 1.67722809 9.75007324 1.45661926 9.07397461 C0.43220905 5.83093112 0 3.45446654 0 0 Z "
     fill="#5DC3F0"
     transform="translate(1063,619)"
     id="path19"
     style="fill:#202a25;fill-opacity:1" />
  <path
     d="M0 0 C3.96 0 7.92 0 12 0 C15.68527243 10.70297207 19.07419316 21.44171839 22.08251953 32.35620117 C22.3195459 33.20931885 22.55657227 34.06243652 22.80078125 34.94140625 C23.00872314 35.70138916 23.21666504 36.46137207 23.4309082 37.24438477 C23.85518093 39.00671648 23.85518093 39.00671648 25 40 C25.28721924 39.03698975 25.57443848 38.07397949 25.87036133 37.08178711 C26.94528407 33.48173202 28.02567891 29.88333798 29.10766602 26.28540039 C29.57366031 24.73310836 30.03820385 23.18038 30.5012207 21.62719727 C31.17010207 19.38439269 31.84432472 17.1432511 32.51953125 14.90234375 C32.72278519 14.21663803 32.92603912 13.53093231 33.13545227 12.82444763 C34.47644032 8.39771827 36.11061746 4.22290203 38 0 C41.63 0 45.26 0 49 0 C48.3906492 6.49575922 46.35344123 12.27383491 44.18359375 18.40234375 C43.80767593 19.48004532 43.43175812 20.55774689 43.04444885 21.66810608 C41.84812668 25.09336943 40.64295184 28.51544034 39.4375 31.9375 C38.62245981 34.26607064 37.80800017 36.59484457 36.99414062 38.92382812 C35.00281073 44.61826211 33.00353809 50.30985048 31 56 C26.71 56 22.42 56 18 56 C15.21730853 49.22832717 12.75046325 42.44830769 10.546875 35.46875 C10.24179016 34.51101685 9.93670532 33.55328369 9.62237549 32.56652832 C8.98538298 30.56380393 8.3502083 28.5605005 7.71679688 26.55664062 C6.74330958 23.47884745 5.76267735 20.40339438 4.78125 17.328125 C4.16103636 15.37513396 3.54122975 13.42201359 2.921875 11.46875 C2.62819031 10.54799683 2.33450562 9.62724365 2.03192139 8.67858887 C1.76454163 7.83010376 1.49716187 6.98161865 1.22167969 6.10742188 C0.98503601 5.36036987 0.74839233 4.61331787 0.50457764 3.84362793 C0 2 0 2 0 0 Z "
     fill="#5DC3F0"
     transform="translate(681,619)"
     id="path20"
     style="fill:#202a25;fill-opacity:1" />
  <path
     d="M0 0 C3.26091103 2.96806223 5.85399532 6.12440143 6.203125 10.609375 C6.36359052 21.3605648 6.36359052 21.3605648 3 26 C-1.09713705 30.21764108 -5.41160085 31.54846775 -11 33 C-14.3 33 -17.6 33 -21 33 C-21 39.6 -21 46.2 -21 53 C-24.3 53 -27.6 53 -31 53 C-31 34.85 -31 16.7 -31 -2 C-21.75935091 -3.84812982 -8.45509967 -5.16065768 0 0 Z M-21 6 C-21 11.94 -21 17.88 -21 24 C-12.84196832 24.49844762 -12.84196832 24.49844762 -7 21 C-4.52657734 17.28986601 -4.61496514 15.38939738 -5 11 C-6.76015131 7.8149643 -7.49890916 7.16703028 -11 6 C-12.72795352 5.93197033 -14.45835365 5.91504355 -16.1875 5.9375 C-18.5696875 5.9684375 -18.5696875 5.9684375 -21 6 Z "
     fill="#5DC3F0"
     transform="translate(494,622)"
     id="path21"
     style="fill:#202a25;fill-opacity:1" />
  <path
     d="M0 0 C0.75087891 -0.00773438 1.50175781 -0.01546875 2.27539062 -0.0234375 C6.48752924 -0.00861907 9.71753835 0.32369715 13.5625 2.25 C12.9025 5.22 12.2425 8.19 11.5625 11.25 C10.77875 11.085 9.995 10.92 9.1875 10.75 C0.47781783 9.42787103 0.47781783 9.42787103 -7.4375 12.25 C-7.6877157 15.33365871 -7.6877157 15.33365871 -7.4375 18.25 C-5.68373047 19.12011719 -5.68373047 19.12011719 -3.89453125 20.0078125 C-2.34599028 20.79616063 -0.79783328 21.58526331 0.75 22.375 C1.51892578 22.75398437 2.28785156 23.13296875 3.08007812 23.5234375 C8.99770718 26.57114345 13.37041874 29.67375622 15.5625 36.25 C16.0899176 42.47352773 15.42123194 47.17627374 11.5625 52.25 C4.47484718 57.95630053 -3.75014267 57.85750751 -12.4375 57.25 C-15.62846909 56.49815523 -18.38879646 55.49015059 -21.4375 54.25 C-21.15622579 52.76882199 -20.86216268 51.29006751 -20.5625 49.8125 C-20.40007812 48.98878906 -20.23765625 48.16507813 -20.0703125 47.31640625 C-19.75707031 46.29353516 -19.75707031 46.29353516 -19.4375 45.25 C-17.4375 44.25 -17.4375 44.25 -15.58984375 44.84375 C-14.85894531 45.1428125 -14.12804687 45.441875 -13.375 45.75 C-8.52536718 47.45011361 -4.39204109 47.75478831 0.5625 46.25 C2.83179996 44.67182765 2.83179996 44.67182765 3.5625 42.25 C3.79512853 39.77776926 3.79512853 39.77776926 2.5625 37.25 C-0.00403275 35.4028801 -2.82360004 34.13557444 -5.6875 32.8125 C-11.61899694 30.04680202 -15.72820295 27.75643709 -19.4375 22.25 C-21.01936586 17.75537154 -20.64742164 13.96140113 -19.3125 9.4375 C-17.33688439 6.07895346 -15.67150962 4.37971365 -12.4375 2.25 C-11.62925781 1.71052734 -11.62925781 1.71052734 -10.8046875 1.16015625 C-7.26056213 -0.20251902 -3.7413702 -0.03834026 0 0 Z "
     fill="#5DC3F0"
     transform="translate(316.4375,618.75)"
     id="path22"
     style="fill:#202a25;fill-opacity:1" />
  <path
     d="M0 0 C14.19 0 28.38 0 43 0 C43 3.3 43 6.6 43 10 C37.72 10 32.44 10 27 10 C27 25.18 27 40.36 27 56 C23.37 56 19.74 56 16 56 C16 40.82 16 25.64 16 10 C10.72 10 5.44 10 0 10 C0 6.7 0 3.4 0 0 Z "
     fill="#5DC3F0"
     transform="translate(1170,619)"
     id="path23"
     style="fill:#202a25;fill-opacity:1" />
  <path
     d="M0 0 C13.86 0 27.72 0 42 0 C42 3.3 42 6.6 42 10 C37.05 10 32.1 10 27 10 C27 25.18 27 40.36 27 56 C23.37 56 19.74 56 16 56 C16 40.82 16 25.64 16 10 C10.72 10 5.44 10 0 10 C0 6.7 0 3.4 0 0 Z "
     fill="#5DC3F0"
     transform="translate(847,619)"
     id="path24"
     style="fill:#202a25;fill-opacity:1" />
  <path
     d="M0 0 C13.86 0 27.72 0 42 0 C42 3.3 42 6.6 42 10 C37.05 10 32.1 10 27 10 C27 25.18 27 40.36 27 56 C23.37 56 19.74 56 16 56 C16 40.82 16 25.64 16 10 C10.72 10 5.44 10 0 10 C0 6.7 0 3.4 0 0 Z "
     fill="#5DC3F0"
     transform="translate(337,619)"
     id="path25"
     style="fill:#202a25;fill-opacity:1" />
  <path
     d="M0 0 C3.63 0 7.26 0 11 0 C11 15.51 11 31.02 11 47 C18.26 47 25.52 47 33 47 C33 49.97 33 52.94 33 56 C22.11 56 11.22 56 0 56 C0 37.52 0 19.04 0 0 Z "
     fill="#5DC3F0"
     transform="translate(787,619)"
     id="path26"
     style="fill:#202a25;fill-opacity:1" />
  <path
     d="M0 0 C3.63 0 7.26 0 11 0 C11 18.48 11 36.96 11 56 C7.37 56 3.74 56 0 56 C0 37.52 0 19.04 0 0 Z "
     fill="#5DC3F0"
     transform="translate(1044,619)"
     id="path27"
     style="fill:#202a25;fill-opacity:1" />
  <path
     d="M0 0 C3.63 0 7.26 0 11 0 C11 18.48 11 36.96 11 56 C7.37 56 3.74 56 0 56 C0 37.52 0 19.04 0 0 Z "
     fill="#5DC3F0"
     transform="translate(954,619)"
     id="path28"
     style="fill:#202a25;fill-opacity:1" />
  <path
     d="M0 0 C3.63 0 7.26 0 11 0 C11 18.48 11 36.96 11 56 C7.37 56 3.74 56 0 56 C0 37.52 0 19.04 0 0 Z "
     fill="#5DC3F0"
     transform="translate(829,619)"
     id="path29"
     style="fill:#202a25;fill-opacity:1" />
  <path
     d="M0 0 C8.19256018 -0.63019694 8.19256018 -0.63019694 11.5625 2 C12.036875 2.66 12.51125 3.32 13 4 C13.309375 3.34 13.61875 2.68 13.9375 2 C16.45557014 -0.44176498 17.28107372 -0.27142406 20.6875 -0.25 C22.1259798 -0.18576167 23.56416999 -0.10836453 25 0 C21.21785595 7.73238339 21.21785595 7.73238339 18 10 C14.0954312 11.08024392 10.8933223 11.14411468 7 10 C4.00709995 7.37284161 1.92493827 4.4754005 0 1 C0 0.67 0 0.34 0 0 Z "
     fill="#5DC3F0"
     transform="translate(1002,607)"
     id="path30"
     style="fill:#202a25;fill-opacity:1" />
  <path
     d="M0 0 C1.45742463 -0.08096803 2.91612807 -0.13917774 4.375 -0.1875 C5.18710937 -0.22230469 5.99921875 -0.25710938 6.8359375 -0.29296875 C7.55007813 -0.19628906 8.26421875 -0.09960938 9 0 C9.66 0.99 10.32 1.98 11 3 C13.6905528 1.77992056 13.6905528 1.77992056 16 0 C17.51928038 -0.07179964 19.04167482 -0.08392007 20.5625 -0.0625 C21.38878906 -0.05347656 22.21507812 -0.04445313 23.06640625 -0.03515625 C23.70449219 -0.02355469 24.34257812 -0.01195312 25 0 C24.04367001 1.29315061 23.08486149 2.58446853 22.125 3.875 C21.59132813 4.59429688 21.05765625 5.31359375 20.5078125 6.0546875 C17.54380997 9.87871149 17.54380997 9.87871149 14.86328125 10.4765625 C10.79724688 10.71317706 8.09626407 10.85071639 4.78515625 8.28125 C0 2.87960123 0 2.87960123 0 0 Z "
     fill="#5DC3F0"
     transform="translate(258,607)"
     id="path31"
     style="fill:#202a25;fill-opacity:1" />
  <path
     d="M0 0 C3.30196728 0.0071704 6.55624305 0.12596812 9.84765625 0.3828125 C8.91175121 1.4883314 7.97385767 2.59216703 7.03515625 3.6953125 C6.25205078 4.61763672 6.25205078 4.61763672 5.453125 5.55859375 C4.92332031 6.16058594 4.39351562 6.76257813 3.84765625 7.3828125 C3.39390625 7.95 2.94015625 8.5171875 2.47265625 9.1015625 C0.1770086 10.91159238 -1.46123164 10.68246622 -4.33984375 10.5703125 C-5.24089844 10.54324219 -6.14195312 10.51617188 -7.0703125 10.48828125 C-7.75738281 10.45347656 -8.44445312 10.41867187 -9.15234375 10.3828125 C-8.84941406 9.78984375 -8.54648437 9.196875 -8.234375 8.5859375 C-7.35921201 6.80401719 -6.58324017 4.97360364 -5.83984375 3.1328125 C-3.15234375 0.3828125 -3.15234375 0.3828125 0 0 Z "
     fill="#5DC3F0"
     transform="translate(963.15234375,606.6171875)"
     id="path32"
     style="fill:#202a25;fill-opacity:1" />
</svg>
