<?xml version="1.0" encoding="UTF-8" standalone="no"?>
<!-- Created with Inkscape (http://www.inkscape.org/) -->

<svg
   version="1.1"
   id="svg1"
   width="1158.1202"
   height="1242.541"
   viewBox="0 0 1158.1202 1242.541"
   sodipodi:docname="rad_maltezskych_rytiru.svg"
   inkscape:version="1.3.1 (9b9bdc1480, 2023-11-25, custom)"
   xmlns:inkscape="http://www.inkscape.org/namespaces/inkscape"
   xmlns:sodipodi="http://sodipodi.sourceforge.net/DTD/sodipodi-0.dtd"
   xmlns="http://www.w3.org/2000/svg"
   xmlns:svg="http://www.w3.org/2000/svg">
  <defs
     id="defs1" />
  <sodipodi:namedview
     id="namedview1"
     pagecolor="#505050"
     bordercolor="#eeeeee"
     borderopacity="1"
     inkscape:showpageshadow="0"
     inkscape:pageopacity="0"
     inkscape:pagecheckerboard="0"
     inkscape:deskcolor="#d1d1d1"
     showgrid="false"
     inkscape:zoom="0.69206843"
     inkscape:cx="580.14494"
     inkscape:cy="621.32584"
     inkscape:window-width="1920"
     inkscape:window-height="1130"
     inkscape:window-x="0"
     inkscape:window-y="0"
     inkscape:window-maximized="1"
     inkscape:current-layer="g1" />
  <g
     inkscape:groupmode="layer"
     inkscape:label="Image"
     id="g1"
     transform="translate(-20.93991,-21.729495)">
    <path
       style="fill:#202a25;fill-opacity:1"
       d="M 561.06006,1251.7865 C 488.59114,1227.7824 451.45461,1212.9396 402.03515,1188.2274 225.22292,1099.8122 108.55419,965.2337 55.26918,788.2295 40.60839,739.52876 30.56399,687.00993 25.62491,633.2295 21.82437,591.84643 21.78415,588.73256 21.35867,302.9795 L 20.93991,21.729495 h 579.06007 579.06012 l -0.023,256.250005 c -0.022,244.83561 -0.5616,306.04737 -2.9746,337.25 -12.4446,160.9241 -62.4153,291.7334 -152.656,399.6106 -14.1874,16.9601 -39.83721,43.6936 -56.88691,59.2902 -74.8877,68.5054 -166.5483,121.1706 -282.9598,162.5794 -16.793,5.9735 -76.4448,25.7792 -83.00003,27.5579 -0.55,0.1493 -18.325,-5.4672 -39.5,-12.4811 z m 80.71799,-55.9418 c 22.98014,-7.6367 50.07824,-17.0911 60.21814,-21.0099 86.441,-33.4068 152.6691,-71.2686 214.5639,-122.6634 15.9971,-13.2835 56.7017,-53.8779 69.6301,-69.4419 76.18741,-91.7185 120.60851,-199.1614 135.81491,-328.5 5.5591,-47.28333 5.371,-36.93426 5.7755,-317.75 l 0.3742,-259.750005 H 600.05686 71.95895 L 72.34399,336.4795 c 0.40065,270.29028 0.31656,264.86702 4.77969,308.25 13.58217,132.0228 58.73295,243.9322 135.96551,337 13.62787,16.422 54.04815,56.8116 70.47087,70.4173 62.04278,51.4004 127.2347,88.7887 213,122.1578 11.84616,4.609 99.72309,34.8147 102.71799,35.3069 0.3949,0.065 19.5199,-6.1302 42.5,-13.7668 z m -59.71799,-28.7435 c -72.75223,-24.1205 -111.28545,-39.5233 -154.46996,-61.7458 -62.4328,-32.1277 -110.89951,-66.9339 -156.07966,-112.0879 -41.60418,-41.5801 -72.3859,-83.977 -98.40569,-135.538 -32.64241,-64.6845 -52.19665,-133.98953 -61.50811,-218 -3.83417,-34.59279 -3.83368,-34.56047 -4.24193,-285.25 l -0.39533,-242.75 h 493.09735 493.09737 l -0.3663,242.25 c -0.3908,258.53105 -0.2514,250.69861 -5.2332,294.00297 -13.0076,113.06955 -49.8759,209.81283 -110.67291,290.40803 -28.7698,38.1384 -69.08,77.9616 -109.8216,108.4945 -54.5145,40.8546 -119.0063,74.435 -196.5,102.3158 -20.6889,7.4435 -69.68425,23.5888 -71.16154,23.4498 -0.46117,-0.043 -8.26349,-2.5407 -17.33849,-5.5494 z m 90.50003,-299.3717 c 39.875,39.8722 72.5,72.0439 72.5,71.4927 0,-0.5512 -32.3899,-81.9726 -71.9776,-180.93655 -39.58761,-98.96392 -71.78369,-180.12822 -71.54681,-180.3651 0.23688,-0.23689 81.53701,32.01298 180.66691,71.66638 99.13,39.65339 180.373,71.96037 180.5401,71.7933 0.167,-0.16708 -32.0579,-32.93084 -71.6109,-72.80837 l -71.9147,-72.50459 71.9215,-71.91628 c 39.5568,-39.55396 71.9215,-72.21044 71.9215,-72.56997 0,-0.35953 -81.3375,31.88464 -180.75,71.6537 -99.4125,39.76907 -180.8838,72.17828 -181.0473,72.02048 -0.1635,-0.1578 32.14527,-81.39436 71.7973,-180.5257 39.652,-99.13134 71.8954,-180.43785 71.6522,-180.68115 -0.2433,-0.24329 -32.916,31.84231 -72.606,71.30133 l -72.16353,71.74368 -71.90787,-71.88208 c -39.54933,-39.53514 -72.1692,-71.62074 -72.48862,-71.30133 -0.31941,0.31942 31.86179,81.68821 71.51379,180.81955 39.652,99.13134 71.96077,180.3679 71.79727,180.5257 -0.1635,0.1578 -81.63477,-32.25141 -181.04727,-72.02048 -99.4125,-39.76906 -180.75,-72.01323 -180.75,-71.6537 0,0.35953 32.36502,33.01637 71.92227,72.57075 l 71.92226,71.91707 -71.85053,72.56872 c -39.5178,39.9128 -71.70536,72.71392 -71.52791,72.89137 0.17745,0.17745 81.38207,-32.16794 180.4547,-71.87864 99.07264,-39.7107 180.33506,-71.99827 180.58318,-71.75016 0.24811,0.24811 -31.93879,81.4216 -71.52643,180.38552 -39.58765,98.96395 -71.97754,180.38535 -71.97754,180.93655 0,0.5512 32.625,-31.6205 72.5,-71.4927 l 72.5,-72.4948 z"
       id="path1" />
  </g>
</svg>
