<?xml version="1.0" encoding="UTF-8" standalone="no"?>
<svg
   version="1.1"
   width="500"
   height="500"
   id="svg10"
   sodipodi:docname="restaurace_dimsumspot.svg"
   inkscape:version="1.3.1 (9b9bdc1480, 2023-11-25, custom)"
   xmlns:inkscape="http://www.inkscape.org/namespaces/inkscape"
   xmlns:sodipodi="http://sodipodi.sourceforge.net/DTD/sodipodi-0.dtd"
   xmlns="http://www.w3.org/2000/svg"
   xmlns:svg="http://www.w3.org/2000/svg">
  <defs
     id="defs10" />
  <sodipodi:namedview
     id="namedview10"
     pagecolor="#505050"
     bordercolor="#eeeeee"
     borderopacity="1"
     inkscape:showpageshadow="0"
     inkscape:pageopacity="0"
     inkscape:pagecheckerboard="0"
     inkscape:deskcolor="#d1d1d1"
     inkscape:zoom="1.78"
     inkscape:cx="249.7191"
     inkscape:cy="250"
     inkscape:window-width="1920"
     inkscape:window-height="1130"
     inkscape:window-x="0"
     inkscape:window-y="0"
     inkscape:window-maximized="1"
     inkscape:current-layer="svg10" />
  <path
     d="M0 0 C0.96479279 -0.00626404 1.92958557 -0.01252808 2.9236145 -0.01898193 C21.07564824 -0.09349656 38.68326165 1.81604767 56.3125 6.25 C57.35865479 6.50861816 58.40480957 6.76723633 59.48266602 7.03369141 C108.95526705 19.5391288 154.94043655 48.22018217 186.625 88.4375 C187.60533203 89.61699219 187.60533203 89.61699219 188.60546875 90.8203125 C212.16197378 119.31380961 227.72936638 154.51613236 235.625 190.4375 C235.83817871 191.39930176 236.05135742 192.36110352 236.27099609 193.35205078 C239.58006605 209.11539991 240.01374173 224.76796303 240.0625 240.8125 C240.07189606 242.25968918 240.07189606 242.25968918 240.08148193 243.7361145 C240.15631377 261.96542078 238.216259 279.61282583 233.75 297.3125 C233.4917041 298.36058838 233.2334082 299.40867676 232.96728516 300.48852539 C225.07650986 331.87482281 210.83426127 362.09399398 190.625 387.4375 C189.56732422 388.78328125 189.56732422 388.78328125 188.48828125 390.15625 C182.54974044 397.5767606 176.15331949 404.53855607 169.625 411.4375 C168.98691406 412.118125 168.34882813 412.79875 167.69140625 413.5 C162.74317121 418.6262291 157.17759165 422.98924856 151.625 427.4375 C150.83222656 428.0975 150.03945313 428.7575 149.22265625 429.4375 C120.31200199 453.29720801 85.03530961 468.56640531 48.625 476.4375 C47.67995605 476.65067871 46.73491211 476.86385742 45.76123047 477.08349609 C30.3339684 480.44280838 15.03637935 480.82730881 -0.6875 480.875 C-1.65415588 480.88126404 -2.62081177 480.88752808 -3.61676025 480.89398193 C-21.78933865 480.96841704 -39.41308167 479.06402782 -57.0625 474.625 C-58.63173218 474.23707275 -58.63173218 474.23707275 -60.23266602 473.84130859 C-109.70526705 461.3358712 -155.69043655 432.65481783 -187.375 392.4375 C-188.02855469 391.65117187 -188.68210938 390.86484375 -189.35546875 390.0546875 C-212.91197378 361.56119039 -228.47936638 326.35886764 -236.375 290.4375 C-236.69476807 288.99479736 -236.69476807 288.99479736 -237.02099609 287.52294922 C-243.4935776 256.68964463 -243.27164718 221.16297913 -236.375 190.4375 C-236.13894043 189.37305664 -235.90288086 188.30861328 -235.65966797 187.21191406 C-228.63947062 156.641693 -215.91893485 126.83430254 -197.375 101.4375 C-196.97603516 100.88980957 -196.57707031 100.34211914 -196.16601562 99.77783203 C-183.45275067 82.49413808 -169.24882417 66.73126949 -152.375 53.4375 C-151.19550781 52.45716797 -151.19550781 52.45716797 -149.9921875 51.45703125 C-121.49869039 27.90052622 -86.29636764 12.33313362 -50.375 4.4375 C-49.41319824 4.22432129 -48.45139648 4.01114258 -47.46044922 3.79150391 C-31.69710009 0.48243395 -16.04453697 0.04875827 0 0 Z M-146.375 58.4375 C-146.9726416 58.93362793 -147.5702832 59.42975586 -148.18603516 59.94091797 C-160.75690187 70.45926614 -172.2591181 81.49565109 -182.375 94.4375 C-183.52355469 95.84322266 -183.52355469 95.84322266 -184.6953125 97.27734375 C-211.66856603 130.97222798 -226.34063138 171.04873596 -232.375 213.4375 C-232.47377441 214.12924316 -232.57254883 214.82098633 -232.67431641 215.53369141 C-240.58543923 274.57659116 -220.85103588 335.90862946 -185.33105469 382.90429688 C-173.99807314 397.55485703 -160.85906911 410.92986918 -146.375 422.4375 C-145.43140625 423.20964844 -144.4878125 423.98179687 -143.515625 424.77734375 C-121.52912129 442.34945876 -96.19094982 455.09662228 -69.375 463.4375 C-68.63507813 463.67162598 -67.89515625 463.90575195 -67.1328125 464.14697266 C-7.74209579 482.68015227 56.57606927 474.10747216 111.25 445.625 C123.80807815 438.88677072 135.78268872 430.67227617 146.625 421.4375 C147.72101133 420.52562944 148.81739319 419.61420412 149.9140625 418.703125 C161.64607811 408.88311303 172.18851486 398.51015625 181.625 386.4375 C182.39070313 385.50035156 183.15640625 384.56320312 183.9453125 383.59765625 C201.54216857 361.61573155 214.26770526 336.2558517 222.625 309.4375 C222.85912598 308.70289551 223.09325195 307.96829102 223.33447266 307.21142578 C230.05824286 285.85159413 232.84566335 263.64325036 232.875 241.3125 C232.87700409 240.57015106 232.87900818 239.82780212 232.881073 239.06295776 C232.98536087 217.44752403 232.98536087 217.44752403 228.625 196.4375 C229.285 196.1075 229.945 195.7775 230.625 195.4375 C229.635 195.1075 228.645 194.7775 227.625 194.4375 C227.51027344 193.14972656 227.39554687 191.86195313 227.27734375 190.53515625 C221.78322023 141.71648848 186.21293779 90.98980721 148.62890625 60.8203125 C147.63761719 60.03398438 146.64632813 59.24765625 145.625 58.4375 C144.62339844 57.63054687 143.62179687 56.82359375 142.58984375 55.9921875 C134.99018358 49.94503103 127.01638803 44.68344509 118.69189453 39.6875 C117.23568029 38.80682236 115.78955283 37.90935818 114.35107422 37 C107.86521382 32.95984132 101.17623955 29.86279176 94.125 26.9375 C92.9793457 26.45974121 91.83369141 25.98198242 90.65332031 25.48974609 C12.43320376 -6.75273954 -80.430329 3.69135399 -146.375 58.4375 Z M-237.375 264.4375 C-236.375 266.4375 -236.375 266.4375 -236.375 266.4375 Z "
     fill="#C59E2D"
     transform="translate(250.375,9.5625)"
     id="path2"
     style="fill:#202a25;fill-opacity:1" />
  <path
     d="M0 0 C3.125 -0.1875 3.125 -0.1875 6 0 C11.5703647 10.52224914 16.0717752 21.44911297 20.625 32.4375 C21.42006483 34.34755589 22.21547798 36.25746682 23.01123047 38.16723633 C25.34655795 43.77578348 27.67388986 49.38762522 30 55 C30.66790432 56.61005277 31.33586978 58.22008018 32.00390625 59.83007812 C35.3446984 67.88310836 38.67788303 75.93924402 42 84 C46.68076424 74.19234454 51.0566205 64.29617378 55.19766235 54.24920654 C56.15070868 51.93764501 57.10833793 49.62802785 58.06713867 47.31884766 C60.37140286 41.76775782 62.67035074 36.21447217 64.9677124 30.66052246 C66.79397607 26.24608963 68.62432526 21.83340157 70.46112061 17.42333984 C71.02607482 16.06411242 71.58912295 14.70409109 72.15020752 13.34326172 C72.92508518 11.46396674 73.70651479 9.58737726 74.48828125 7.7109375 C74.92696533 6.65181152 75.36564941 5.59268555 75.81762695 4.50146484 C77 2 77 2 79 0 C81.5 -0.25 81.5 -0.25 84 0 C86 2 86 2 86.24609566 4.10456276 C86.24333028 5.41811776 86.24333028 5.41811776 86.24050903 6.75820923 C86.24325836 7.76224289 86.24600769 8.76627655 86.24884033 9.80073547 C86.2380545 11.45905647 86.2380545 11.45905647 86.22705078 13.15087891 C86.22734283 14.31184586 86.22763489 15.47281281 86.22793579 16.66896057 C86.22653804 20.52156954 86.21095575 24.37398715 86.1953125 28.2265625 C86.19158395 30.8917168 86.1886379 33.55686037 86.18673706 36.22201538 C86.18051488 42.52956575 86.16409413 48.837047 86.14403808 55.14456689 C86.12170199 62.32463622 86.11069143 69.5047088 86.10064721 76.6848042 C86.07972851 91.45657153 86.04453823 106.22828456 86 121 C81.375 123.125 81.375 123.125 78 122 C76.38696669 118.77393337 76.81969995 115.24101712 76.79467773 111.69482422 C76.78477814 110.83621796 76.77487854 109.97761169 76.76467896 109.09298706 C76.73301961 106.24691553 76.70828902 103.40082729 76.68359375 100.5546875 C76.66302805 98.58455972 76.64203168 96.6144364 76.62062073 94.64431763 C76.56536039 89.45265298 76.5159686 84.26094826 76.46777344 79.06921387 C76.41758731 73.77397077 76.36188619 68.47878605 76.30664062 63.18359375 C76.1990106 52.78911234 76.0975764 42.3945803 76 32 C75.77416922 32.52639604 75.54833843 33.05279207 75.31566429 33.5951395 C74.64251845 35.16418684 73.96936764 36.73323204 73.29621315 38.30227566 C72.53047566 40.08712075 71.76474776 41.87196996 70.99902916 43.65682316 C68.99439556 48.32939463 66.9891444 53.00169949 64.98291016 57.67358398 C61.44163138 65.92593971 57.90669811 74.17987952 54.4609375 82.47265625 C53.96118408 83.67164551 53.46143066 84.87063477 52.9465332 86.10595703 C52.0454908 88.27488006 51.15047609 90.44632024 50.26245117 92.62060547 C49.86775635 93.5695166 49.47306152 94.51842773 49.06640625 95.49609375 C48.73584229 96.30232178 48.40527832 97.1085498 48.06469727 97.93920898 C46.90753216 100.17897755 46.08754894 101.56641853 44 103 C41.554245 102.85043335 41.554245 102.85043335 39 102 C37.56491089 100.05885315 37.56491089 100.05885315 36.44873047 97.54907227 C36.0355658 96.64093781 35.62240112 95.73280334 35.19671631 94.79714966 C34.80179993 93.87409027 34.40688354 92.95103088 34 92 C33.64423889 91.1940036 33.28847778 90.3880072 32.92193604 89.55758667 C31.86195263 87.12020225 30.83701958 84.67057624 29.8203125 82.21484375 C29.44446014 81.31488174 29.06860779 80.41491974 28.68136597 79.48768616 C27.49262477 76.63898062 26.30876248 73.78827744 25.125 70.9375 C24.3401573 69.05520777 23.55500311 67.17304539 22.76953125 65.29101562 C18.1479158 54.20704274 13.56905117 43.10572005 9 32 C8.99635437 33.09580887 8.99270874 34.19161774 8.98895264 35.32063293 C8.95204866 45.63589433 8.89432663 55.95085593 8.81609726 66.26588917 C8.77654873 71.5692807 8.74439652 76.87250436 8.72900391 82.17602539 C8.71388581 87.29202289 8.67952694 92.40755909 8.63169098 97.52335167 C8.61682701 99.47738325 8.60895613 101.43148068 8.60811615 103.38556862 C8.60575977 106.11798199 8.57878862 108.84910659 8.54589844 111.58129883 C8.5509288 112.39337799 8.55595917 113.20545715 8.56114197 114.04214478 C8.45933174 119.49070513 8.45933174 119.49070513 6.1338501 122.06913757 C4 123 4 123 1.3125 122.3125 C-1 121 -1 121 -2 119 C-2.09660101 117.46100777 -2.13067142 115.91788778 -2.13371277 114.37586975 C-2.13797775 113.40141403 -2.14224274 112.42695831 -2.14663696 111.42297363 C-2.14618378 110.35019165 -2.14573059 109.27740967 -2.14526367 108.17211914 C-2.14862228 107.04523178 -2.1519809 105.91834442 -2.15544128 104.75730896 C-2.16497302 101.01658031 -2.16689547 97.2758963 -2.16796875 93.53515625 C-2.17117964 90.94445273 -2.17454358 88.3537494 -2.17805481 85.76304626 C-2.18405155 80.32648216 -2.18593684 74.8899359 -2.18530273 69.45336914 C-2.1847018 63.1663152 -2.19525604 56.87934702 -2.2110464 50.59231478 C-2.22568687 44.54815684 -2.22929111 38.50404554 -2.22869301 32.45986748 C-2.22987633 29.88617032 -2.23431765 27.31247259 -2.24202538 24.7387867 C-2.2517809 21.1448764 -2.2489648 17.55118898 -2.24291992 13.95727539 C-2.24853943 12.88651764 -2.25415894 11.81575989 -2.25994873 10.71255493 C-2.25575424 9.73527939 -2.25155975 8.75800385 -2.24723816 7.75111389 C-2.24778293 6.90105302 -2.24832769 6.05099215 -2.24888897 5.17517185 C-2 3 -2 3 0 0 Z "
     fill="#2E444F"
     transform="translate(269,161)"
     id="path3"
     style="fill:#202a25;fill-opacity:1" />
  <path
     d="M0 0 C0.8125 2.4375 0.8125 2.4375 1 5 C0.34 5.99 -0.32 6.98 -1 8 C-6.05028112 8.70469039 -9.45537884 7.06573689 -14 5 C-22.91804025 2.54753893 -31.3487785 4.45499201 -39.3125 8.8125 C-44.65663199 13.16237488 -48.45126732 17.81230325 -49.37109375 24.83203125 C-49.52812264 31.87985735 -48.96537063 36.77638314 -44 42 C-37.21402457 48.17040098 -28.56921523 50.36381339 -20 53 C-7.57224198 56.88448096 2.1191291 61.49428144 9 73 C12.7479158 81.19526658 12.5985756 89.51069014 10.1328125 98.07421875 C6.42602812 107.64794807 0.0675596 113.82833898 -9.2109375 117.9921875 C-20.18037674 122.27393888 -30.83933331 122.15708988 -41.98828125 118.32421875 C-49.37924065 115.0744973 -56.37286563 109.35832588 -60 102 C-59.875 98.5 -59.875 98.5 -59 96 C-56.8125 95.1875 -56.8125 95.1875 -54 95 C-51.6875 97 -51.6875 97 -50.4375 98.3984375 C-43.68253061 105.92435448 -36.65296314 110.2334814 -26.48828125 111.05859375 C-18.9098268 110.88013721 -11.52748082 108.78993681 -5.69140625 103.85546875 C-1.24508686 98.97786665 1.24741934 93.48153001 1.5625 86.875 C1.17266685 80.32990662 -1.26378108 75.38158343 -5.9375 70.8125 C-12.00949074 66.05267675 -19.69537709 63.9374382 -27.01171875 61.82421875 C-39.37725244 58.24394829 -50.26760298 53.71935777 -57 42 C-60.90808602 33.10525226 -61.08081355 24.58586326 -58.0390625 15.41796875 C-54.33423684 6.79658874 -47.42107537 0.21436128 -38.8125 -3.3125 C-26.13145646 -8.04542491 -11.50604982 -7.67069988 0 0 Z "
     fill="#2E444F"
     transform="translate(193,219)"
     id="path4"
     style="fill:#202a25;fill-opacity:1" />
  <path
     d="M0 0 C2.3431213 0.25561323 4.67843403 0.59270772 7 1 C8.19411142 3.38822284 8.13067375 4.8725329 8.1418457 7.53808594 C8.14888016 8.47956482 8.15591461 9.4210437 8.16316223 10.39105225 C8.16732651 11.41184875 8.17149078 12.43264526 8.17578125 13.484375 C8.19898366 15.63803056 8.22310117 17.79167642 8.24804688 19.9453125 C8.28314102 23.34674526 8.3124914 26.74782242 8.32592773 30.14941406 C8.34142057 33.42817499 8.38164576 36.70589076 8.42578125 39.984375 C8.42387283 40.99707458 8.42196442 42.00977417 8.41999817 43.05316162 C8.52303588 49.01443577 9.05331124 52.44581142 13 57 C16.56406412 59.97005343 19.56999363 60.45752852 24.0703125 60.3046875 C26.82639823 59.86951607 28.74658175 58.59064818 31 57 C31.66 57 32.32 57 33 57 C35.71567541 50.27551661 36.44053001 44.34272113 36.44140625 37.12890625 C36.45461411 36.12536606 36.46782196 35.12182587 36.48143005 34.08787537 C36.52202593 30.91272075 36.5439335 27.73785415 36.5625 24.5625 C36.58628038 21.36223736 36.61430552 18.16224597 36.65428162 14.96214294 C36.67866763 12.97791541 36.69350256 10.99354306 36.69789124 9.00917053 C36.70807785 8.11741623 36.71826447 7.22566193 36.72875977 6.30688477 C36.73303482 5.52128677 36.73730988 4.73568878 36.74171448 3.92628479 C37 2 37 2 39 0 C44.56818182 0.56818182 44.56818182 0.56818182 46 2 C46.1140339 3.51704698 46.1595661 5.03931998 46.17700195 6.56054688 C46.19625481 8.01841614 46.19625481 8.01841614 46.21589661 9.5057373 C46.22328354 10.56603149 46.23067047 11.62632568 46.23828125 12.71875 C46.246353 13.80579224 46.25442474 14.89283447 46.26274109 16.01281738 C46.27660729 18.32298172 46.28731802 20.63316676 46.29516602 22.94335938 C46.31229256 26.45743584 46.35614649 29.97055057 46.40039062 33.484375 C46.41052475 35.72915975 46.4190386 37.9739525 46.42578125 40.21875 C46.44328934 41.26285034 46.46079742 42.30695068 46.47883606 43.38269043 C46.45628468 51.0689472 44.97901663 57.16240216 40.2109375 63.3046875 C34.35698305 68.31168684 28.80569495 71.09934253 20.9765625 70.9375 C14.00501042 70.09459194 8.87102078 68.13035754 4 63 C-0.4310928 57.33927895 -2.1115719 52.36737755 -2.14526367 45.16552734 C-2.15164352 44.23461273 -2.15802338 43.30369812 -2.16459656 42.34457397 C-2.16570938 41.35172394 -2.1668222 40.3588739 -2.16796875 39.3359375 C-2.17129715 38.30691315 -2.17462555 37.27788879 -2.17805481 36.21768188 C-2.18310794 34.04746954 -2.18546363 31.87724947 -2.18530273 29.70703125 C-2.18749665 26.38007965 -2.20568982 23.0534558 -2.22460938 19.7265625 C-2.22754209 17.61718863 -2.2295277 15.50781319 -2.23046875 13.3984375 C-2.23765427 12.401539 -2.24483978 11.4046405 -2.25224304 10.37753296 C-2.24916641 9.45292267 -2.24608978 8.52831238 -2.24291992 7.57568359 C-2.24434494 6.7624765 -2.24576996 5.94926941 -2.24723816 5.11141968 C-2 3 -2 3 0 0 Z "
     fill="#2E444F"
     transform="translate(206,213)"
     id="path5"
     style="fill:#202a25;fill-opacity:1" />
  <path
     d="M0 0 C6.73178063 4.50373996 10.49235332 9.84887383 12.75 17.5625 C13.53625965 25.22853159 12.8648111 31.71036221 8.5234375 38.2109375 C3.76503397 44.05573453 -1.62822646 47.43277255 -9 49 C-16.68344315 49.67398624 -23.7167406 47.97931512 -30.1171875 43.52734375 C-35.39616849 38.73547903 -38.30353452 32.70905637 -39.34375 25.67578125 C-39.66114528 18.09796883 -37.58816751 11.57530925 -32.8125 5.6875 C-24.09347912 -3.58569593 -11.36924268 -5.5953341 0 0 Z M-26.3125 13.625 C-29.62098774 18.28139015 -29.62082623 22.39531877 -29 28 C-26.50665497 32.98669007 -23.00649051 36.49675474 -18 39 C-13.04517906 39.54360446 -9.12874148 39.56437074 -4.625 37.3125 C-1.03224197 34.14745126 2.69412413 30.78798338 3.23828125 25.828125 C3.40659218 19.98153463 3.02425335 16.56807137 -1 12 C-5.99338118 7.60106896 -8.91015227 6.64323663 -15.4609375 6.71875 C-20.43602713 7.26983685 -23.12519403 10.00697701 -26.3125 13.625 Z "
     fill="#2E444F"
     transform="translate(298,291)"
     id="path6"
     style="fill:#202a25;fill-opacity:1" />
  <path
     d="M0 0 C8.40221864 0.02285541 15.14922446 0.27299211 21.61499023 6.25195312 C27.73488614 12.85894279 29.07787878 18.2074594 28.89624023 27.15820312 C28.17680996 34.76756183 24.45946045 38.99281748 18.88452148 43.93554688 C13.53700131 47.30621547 7.96586263 47.65553259 1.77905273 47.63085938 C0.47323242 47.63601562 -0.83258789 47.64117187 -2.17797852 47.64648438 C-5.40844727 47.38085938 -5.40844727 47.38085938 -7.40844727 45.38085938 C-7.66241455 43.5213623 -7.66241455 43.5213623 -7.66723633 41.23828125 C-7.67354065 40.38399536 -7.67984497 39.52970947 -7.68634033 38.64953613 C-7.68229187 37.7255603 -7.67824341 36.80158447 -7.67407227 35.84960938 C-7.67598572 34.90275269 -7.67789917 33.955896 -7.67987061 32.98034668 C-7.68123299 30.97631566 -7.67753283 28.97227583 -7.66918945 26.96826172 C-7.65849074 23.89335384 -7.66908298 20.81903024 -7.68188477 17.74414062 C-7.68056318 15.80012891 -7.67800081 13.85611757 -7.67407227 11.91210938 C-7.68014496 10.52614563 -7.68014496 10.52614563 -7.68634033 9.11218262 C-7.68003601 8.25789673 -7.67373169 7.40361084 -7.66723633 6.5234375 C-7.66564514 5.77002075 -7.66405396 5.016604 -7.66241455 4.24035645 C-7.05140108 -0.23336051 -3.78168019 0.08370374 0 0 Z M1.59155273 9.38085938 C1.59155273 18.95085937 1.59155273 28.52085937 1.59155273 38.38085938 C11.33734056 37.39717931 11.33734056 37.39717931 17.59155273 31.38085938 C19.6990654 27.71561995 20.1047983 24.57236484 19.59155273 20.38085938 C17.27747581 16.09553173 14.78197618 12.89511344 10.59155273 10.38085938 C7.62155273 10.05085937 4.65155273 9.72085938 1.59155273 9.38085938 Z "
     fill="#2E444F"
     transform="translate(194.408447265625,160.619140625)"
     id="path7"
     style="fill:#202a25;fill-opacity:1" />
  <path
     d="M0 0 C6.01381629 0.09242546 10.57164902 0.62427253 15.375 4.375 C20.24056249 9.49007852 20.72830453 13.8212712 20.65625 20.6484375 C20.12719782 25.7773045 17.47837553 28.4029787 13.75 31.6875 C9.14124085 34.96214466 5.96022256 34.45478889 0.375 34.375 C0.375 39.655 0.375 44.935 0.375 50.375 C-4.625 52.375 -4.625 52.375 -6.9375 51.5 C-7.494375 51.12875 -8.05125 50.7575 -8.625 50.375 C-8.6755894 43.57571581 -8.71068667 36.7764799 -8.73486328 29.97705078 C-8.74493892 27.66257921 -8.75859975 25.34812041 -8.77587891 23.03369141 C-8.80005865 19.71253307 -8.8114673 16.3915426 -8.8203125 13.0703125 C-8.83063507 12.03069366 -8.84095764 10.99107483 -8.85159302 9.91995239 C-8.85174408 8.95910736 -8.85189514 7.99826233 -8.85205078 7.00830078 C-8.856492 6.16002716 -8.86093323 5.31175354 -8.86550903 4.43777466 C-8.2696044 -0.67312267 -4.17451061 0.04469497 0 0 Z M0.375 9.375 C0.375 14.655 0.375 19.935 0.375 25.375 C6.15479756 25.94963042 6.15479756 25.94963042 9.3125 23.3125 C11.72217255 20.47875271 11.72217255 20.47875271 11.375 16.75 C10.32648719 12.79011575 10.32648719 12.79011575 7.375 10.375 C5.065 10.045 2.755 9.715 0.375 9.375 Z "
     fill="#2E444F"
     transform="translate(226.625,287.625)"
     id="path8"
     style="fill:#202a25;fill-opacity:1" />
  <path
     d="M0 0 C1.08946678 -0.0049926 1.08946678 -0.0049926 2.20094299 -0.01008606 C3.74015671 -0.015158 5.27938145 -0.0174943 6.81860352 -0.01733398 C9.17808096 -0.01951891 11.53708986 -0.0376669 13.89648438 -0.05664062 C15.38932131 -0.05957477 16.88216048 -0.06155942 18.375 -0.0625 C19.43756264 -0.07327827 19.43756264 -0.07327827 20.52159119 -0.08427429 C25.52508288 -0.06085462 25.52508288 -0.06085462 27.75390625 2.16796875 C28.00390625 4.66796875 28.00390625 4.66796875 27.75390625 7.16796875 C25.75390625 9.16796875 25.75390625 9.16796875 22.93359375 9.36328125 C21.84304688 9.34007812 20.7525 9.316875 19.62890625 9.29296875 C18.53320312 9.27492188 17.4375 9.256875 16.30859375 9.23828125 C15.46554687 9.21507812 14.6225 9.191875 13.75390625 9.16796875 C13.76437988 10.36921387 13.77485352 11.57045898 13.78564453 12.80810547 C13.82177912 17.25468987 13.84478282 21.70126123 13.86376953 26.14794922 C13.87384207 28.07440369 13.88750068 30.00084283 13.90478516 31.92724609 C13.92897866 34.69242127 13.94037661 37.45739475 13.94921875 40.22265625 C13.95954132 41.08728485 13.96986389 41.95191345 13.98049927 42.84274292 C13.98089731 44.95250396 13.87655868 47.06177593 13.75390625 49.16796875 C13.09390625 49.82796875 12.43390625 50.48796875 11.75390625 51.16796875 C6.18572443 50.59978693 6.18572443 50.59978693 4.75390625 49.16796875 C4.66522326 46.21091554 4.63870329 43.27731819 4.65625 40.3203125 C4.65766495 39.43388565 4.6590799 38.5474588 4.66053772 37.63417053 C4.6661541 34.79123621 4.67870934 31.94837944 4.69140625 29.10546875 C4.69641914 27.18294384 4.70098241 25.26041771 4.70507812 23.33789062 C4.71612884 18.61455326 4.73340442 13.89127417 4.75390625 9.16796875 C3.91085937 9.20277344 3.0678125 9.23757813 2.19921875 9.2734375 C1.10351562 9.30050781 0.0078125 9.32757813 -1.12109375 9.35546875 C-2.21164062 9.39027344 -3.3021875 9.42507813 -4.42578125 9.4609375 C-5.35648437 9.36425781 -6.2871875 9.26757812 -7.24609375 9.16796875 C-9.24609375 6.16796875 -9.24609375 6.16796875 -8.93359375 3.54296875 C-7.56606325 -1.18122753 -4.27357713 0.00669446 0 0 Z "
     fill="#2E444F"
     transform="translate(328.24609375,288.83203125)"
     id="path9"
     style="fill:#202a25;fill-opacity:1" />
  <path
     d="M0 0 C0.78375 0.2475 1.5675 0.495 2.375 0.75 C3.52101494 3.04202988 3.50737239 4.3445669 3.52026367 6.89257812 C3.52983345 8.17400696 3.52983345 8.17400696 3.53959656 9.48132324 C3.54070938 10.40529907 3.5418222 11.3292749 3.54296875 12.28125 C3.54629715 13.22810669 3.54962555 14.17496338 3.55305481 15.1505127 C3.55812246 17.15453606 3.56046319 19.15856789 3.56030273 21.16259766 C3.56249106 24.23744503 3.58065354 27.31193481 3.59960938 30.38671875 C3.60254289 32.33072793 3.60452797 34.27473883 3.60546875 36.21875 C3.61265427 37.14272583 3.61983978 38.06670166 3.62724304 39.01867676 C3.62416641 39.87296265 3.62108978 40.72724854 3.61791992 41.60742188 C3.61934494 42.36083862 3.62076996 43.11425537 3.62223816 43.89050293 C3.375 45.75 3.375 45.75 1.375 47.75 C-1.125 48 -1.125 48 -3.625 47.75 C-6.0285833 45.3464167 -5.88006049 44.79587571 -5.8996582 41.515625 C-5.90919022 40.64131836 -5.91872223 39.76701172 -5.92854309 38.86621094 C-5.92763168 37.92036133 -5.92672028 36.97451172 -5.92578125 36 C-5.93006638 35.03094727 -5.9343515 34.06189453 -5.93876648 33.06347656 C-5.94451558 31.01237775 -5.94500579 28.96125854 -5.94067383 26.91015625 C-5.93751272 23.76266928 -5.96096993 20.61612073 -5.98632812 17.46875 C-5.98860085 15.47916786 -5.98930474 13.48958318 -5.98828125 11.5 C-5.997491 10.55415039 -6.00670074 9.60830078 -6.01618958 8.63378906 C-6.00996078 7.75948242 -6.00373199 6.88517578 -5.99731445 5.984375 C-5.99794388 5.21319336 -5.9985733 4.44201172 -5.9992218 3.64746094 C-5.87572861 3.02129883 -5.75223541 2.39513672 -5.625 1.75 C-2.625 -0.25 -2.625 -0.25 0 0 Z "
     fill="#2E444F"
     transform="translate(248.625,160.25)"
     id="path10"
     style="fill:#202a25;fill-opacity:1" />
</svg>
