<?xml version="1.0" encoding="UTF-8" standalone="no"?>
<svg
   version="1.1"
   width="384"
   height="505"
   id="svg12"
   sodipodi:docname="restaurace_v_zatisi.svg"
   inkscape:version="1.3.1 (9b9bdc1480, 2023-11-25, custom)"
   xmlns:inkscape="http://www.inkscape.org/namespaces/inkscape"
   xmlns:sodipodi="http://sodipodi.sourceforge.net/DTD/sodipodi-0.dtd"
   xmlns="http://www.w3.org/2000/svg"
   xmlns:svg="http://www.w3.org/2000/svg">
  <defs
     id="defs12" />
  <sodipodi:namedview
     id="namedview12"
     pagecolor="#505050"
     bordercolor="#eeeeee"
     borderopacity="1"
     inkscape:showpageshadow="0"
     inkscape:pageopacity="0"
     inkscape:pagecheckerboard="0"
     inkscape:deskcolor="#d1d1d1"
     inkscape:zoom="1.2461882"
     inkscape:cx="132.00253"
     inkscape:cy="281.6589"
     inkscape:window-width="1920"
     inkscape:window-height="1130"
     inkscape:window-x="0"
     inkscape:window-y="0"
     inkscape:window-maximized="1"
     inkscape:current-layer="svg12" />
  <path
     d="M0 0 C126.72 0 253.44 0 384 0 C384 127.71 384 255.42 384 387 C257.28 387 130.56 387 0 387 C0 259.29 0 131.58 0 0 Z M94 38 C94 38.99 94 39.98 94 41 C157.36 41 220.72 41 286 41 C286 40.01 286 39.02 286 38 C222.64 38 159.28 38 94 38 Z M303.43309492 80.44270658 C302.74997804 81.12620318 302.06686117 81.80969977 301.36304379 82.51390839 C300.57728873 83.29767239 299.79153368 84.0814364 298.98196787 84.88895082 C297.67314208 86.20214587 297.67314208 86.20214587 296.33787537 87.54187012 C295.41822166 88.4606694 294.49856795 89.37946868 293.55104595 90.32611036 C290.98569352 92.88921456 288.42349005 95.45544705 285.86176169 98.02217269 C283.10349914 100.78473487 280.3423668 103.544426 277.58157349 106.30445862 C272.79447426 111.0910323 268.0092162 115.87944034 263.2251873 120.66908264 C256.30819532 127.5941855 249.38845902 134.51654072 242.46803964 141.4382183 C231.24146713 152.66698198 220.01713177 163.89797918 208.79418945 175.13037109 C197.8891078 186.04462519 186.98298124 196.9578334 176.07543945 207.86962891 C175.06772253 208.87773991 175.06772253 208.87773991 174.03964769 209.9062168 C170.66951948 213.27765001 167.29937062 216.64906258 163.9292115 220.0204649 C135.94960645 248.01044458 107.97362614 276.00404497 80 304 C80.33 304.99 80.66 305.98 81 307 C86.68905813 302.26790977 91.93432599 297.20421519 97.15586853 291.96438599 C98.05614747 291.06496147 98.95642641 290.16553695 99.88398653 289.23885715 C102.36736147 286.75770616 104.84762785 284.27346842 107.3273741 281.78869152 C110.00780335 279.10392764 112.69113869 276.42207099 115.37411499 273.73985291 C120.01705194 269.09743929 124.65816027 264.45320411 129.2980175 259.80771255 C136.00640395 253.09118522 142.71756316 246.37743402 149.4293936 239.66434847 C160.31987747 228.77167814 171.20812817 217.87677839 182.0949707 206.98046875 C192.66801501 196.39823981 203.24211328 185.81706585 213.81762695 175.23730469 C214.46993992 174.584729 215.12225289 173.93215331 215.79433291 173.25980259 C219.06693285 169.98589758 222.33955349 166.71201325 225.61218441 163.4381392 C252.74466488 136.29529878 279.8735196 109.1488368 307 82 C306.67 81.01 306.34 80.02 306 79 C304.76762215 78.88710835 304.76762215 78.88710835 303.43309492 80.44270658 Z M38 97 C38 160.36 38 223.72 38 289 C38.99 289 39.98 289 41 289 C41 225.64 41 162.28 41 97 C40.01 97 39.02 97 38 97 Z M345 97 C345 160.36 345 223.72 345 289 C345.99 289 346.98 289 348 289 C348 225.64 348 162.28 348 97 C347.01 97 346.02 97 345 97 Z M94 345 C94 345.99 94 346.98 94 348 C157.36 348 220.72 348 286 348 C286 347.01 286 346.02 286 345 C222.64 345 159.28 345 94 345 Z "
     fill="#FEFEFE"
     transform="translate(0,0)"
     id="path1"
     style="fill:#202a25;fill-opacity:1" />
  <path
     d="M0 0 C14.85 0 29.7 0 45 0 C45 10.10309278 45 10.10309278 41.8125 14.375 C41.08289063 15.38820313 40.35328125 16.40140625 39.6015625 17.4453125 C39.18938477 18.00379883 38.77720703 18.56228516 38.35253906 19.13769531 C36.28468618 21.98491224 34.32021828 24.90060927 32.34350586 27.81152344 C30.6827878 30.25693874 29.01281697 32.69576785 27.33984375 35.1328125 C25.14243732 38.33450984 22.94711006 41.53760991 20.75390625 44.7421875 C19.75269276 46.20318572 18.75139479 47.66412604 17.75 49.125 C17.28424561 49.80594727 16.81849121 50.48689453 16.33862305 51.18847656 C13.11433014 55.88566986 13.11433014 55.88566986 12 57 C28.335 57.495 28.335 57.495 45 58 C45 60.97 45 63.94 45 67 C29.82 67 14.64 67 -1 67 C-1 58.72964945 -0.86900319 56.52461107 3.6875 50.625 C4.70028846 49.23645669 5.71195919 47.8470976 6.72265625 46.45703125 C7.52533936 45.37349365 7.52533936 45.37349365 8.34423828 44.26806641 C11.203711 40.35115376 13.90418431 36.32634055 16.625 32.3125 C21.71469229 24.85023689 26.85828987 17.42691464 32 10 C21.44 9.67 10.88 9.34 0 9 C0 6.03 0 3.06 0 0 Z "
     fill="#FEFEFE"
     transform="translate(129,438)"
     id="path2"
     style="fill:#202a25;fill-opacity:1" />
  <path
     d="M0 0 C3.63 0 7.26 0 11 0 C12.61948073 4.83330098 14.23679457 9.66732027 15.85229492 14.50195312 C16.39958371 16.13886014 16.94741543 17.77558576 17.49584961 19.41210938 C20.58789162 28.64005509 23.64198383 37.87226017 26.45549011 47.18969727 C27.2500936 50.3527353 27.2500936 50.3527353 29 53 C34.61 35.51 40.22 18.02 46 0 C49.63 0 53.26 0 57 0 C55.00739129 7.52478026 52.79007662 14.91500193 50.3125 22.29296875 C49.96872314 23.32384109 49.62494629 24.35471344 49.27075195 25.41682434 C48.54944134 27.57775754 47.82668629 29.73820908 47.10253906 31.89819336 C45.99978498 35.18814148 44.90187518 38.47967621 43.8046875 41.77148438 C43.09924172 43.8829072 42.39352195 45.99423851 41.6875 48.10546875 C41.36241455 49.07961227 41.0373291 50.0537558 40.70239258 51.05741882 C38.90428812 56.41477725 37.01889323 61.72175895 35 67 C31.04 67 27.08 67 23 67 C19.47910048 58.78018615 16.37297104 50.54095932 13.57421875 42.05078125 C12.98553764 40.28192818 12.98553764 40.28192818 12.38496399 38.4773407 C11.56531344 36.01172067 10.74780525 33.54538748 9.93237305 31.07836914 C8.67776849 27.28306118 7.41659431 23.49002113 6.15429688 19.69726562 C5.35639297 17.29439627 4.55885343 14.89140589 3.76171875 12.48828125 C3.38367599 11.34990311 3.00563324 10.21152496 2.61613464 9.03865051 C2.27189957 7.99633774 1.92766449 6.95402496 1.57299805 5.88012695 C1.268311 4.95923782 0.96362396 4.03834869 0.64970398 3.08955383 C0 1 0 1 0 0 Z "
     fill="#FEFEFE"
     transform="translate(42,438)"
     id="path3"
     style="fill:#202a25;fill-opacity:1" />
  <path
     d="M0 0 C5.19812678 3.86527376 6.9792715 7.57303284 8.4375 13.8125 C8.68172632 16.6710403 8.67220567 19.50386646 8.6328125 22.37109375 C8.6299826 23.16024673 8.62715271 23.94939972 8.62423706 24.76246643 C8.61313057 27.25847172 8.58804455 29.75410498 8.5625 32.25 C8.55245785 33.95246874 8.54333417 35.65494316 8.53515625 37.35742188 C8.5132226 41.50925576 8.47875977 45.66081502 8.4375 49.8125 C5.4675 49.8125 2.4975 49.8125 -0.5625 49.8125 C-0.8925 48.4925 -1.2225 47.1725 -1.5625 45.8125 C-2.284375 46.4725 -3.00625 47.1325 -3.75 47.8125 C-8.74300844 51.14911662 -14.83378978 50.5340551 -20.5625 49.8125 C-25.04342 47.72655449 -27.71651065 45.42747339 -29.5625 40.8125 C-30.37562988 35.48198187 -29.96194666 30.8557653 -26.9375 26.30859375 C-22.15299025 21.10272093 -14.82138078 19.96488122 -8.19921875 18.5234375 C-5.36100051 17.90852977 -5.36100051 17.90852977 -2.5625 15.8125 C-3.13702746 11.88174356 -3.13702746 11.88174356 -5.5625 8.8125 C-7.6344137 8.49360168 -7.6344137 8.49360168 -9.9375 8.5625 C-10.70835937 8.55734375 -11.47921875 8.5521875 -12.2734375 8.546875 C-14.81898926 8.84226326 -16.40061991 9.44856707 -18.5625 10.8125 C-20.31572937 13.34438648 -20.31572937 13.34438648 -21.5625 15.8125 C-24.91845828 15.21322174 -26.94051226 13.96627564 -29.5625 11.8125 C-29.48052415 9.02532111 -29.00014605 7.29497233 -27.11328125 5.21484375 C-19.26775216 -1.71168628 -10.07594694 -3.35864898 0 0 Z M-10 27.625 C-11.15371094 27.96144531 -12.30742187 28.29789062 -13.49609375 28.64453125 C-16.36252143 29.73632982 -17.79380773 30.35735724 -19.5625 32.8125 C-20.14583333 35.8125 -20.14583333 35.8125 -19.5625 38.8125 C-17.38782291 41.3217428 -15.96109229 41.75184465 -12.6875 42.25 C-8.14772396 41.61443135 -5.02692604 39.67631496 -2.1875 36.0625 C-1.22934038 32.61312538 -1.44341488 29.38505374 -1.5625 25.8125 C-4.55128858 25.8125 -7.14137018 26.7741035 -10 27.625 Z "
     fill="#FEFEFE"
     transform="translate(215.5625,455.1875)"
     id="path4"
     style="fill:#202a25;fill-opacity:1" />
  <path
     d="M0 0 C3.28943008 1.75296592 6.03877678 3.87833481 7.71484375 7.23046875 C7.71484375 9.29296875 7.71484375 9.29296875 6.71484375 11.23046875 C4.33984375 13.04296875 4.33984375 13.04296875 1.71484375 14.23046875 C-1.28515625 13.23046875 -1.28515625 13.23046875 -2.97265625 11.16796875 C-5.52806246 9.02695274 -6.20987009 8.91912725 -9.41015625 8.85546875 C-13.29556217 8.81706984 -13.29556217 8.81706984 -15.28515625 11.23046875 C-15.58123244 14.24708303 -15.58123244 14.24708303 -14.28515625 17.23046875 C-11.60301385 18.58072537 -9.37514097 19.4654732 -6.53515625 20.29296875 C-0.85796235 22.01348525 2.76496966 23.51926397 6.71484375 28.23046875 C8.83061959 32.46202042 8.35191514 37.64823049 7.71484375 42.23046875 C5.766964 45.77860664 3.34662537 48.41457794 -0.28515625 50.23046875 C-3.05061767 50.40841511 -5.767789 50.50808597 -8.53515625 50.54296875 C-9.28667969 50.57197266 -10.03820312 50.60097656 -10.8125 50.63085938 C-17.37493588 50.70530236 -20.6865065 48.36269418 -25.72265625 44.23046875 C-27.28515625 42.23046875 -27.28515625 42.23046875 -27.34765625 40.23046875 C-25.85564895 37.42198442 -23.88720075 36.00747475 -21.28515625 34.23046875 C-20.62515625 34.23046875 -19.96515625 34.23046875 -19.28515625 34.23046875 C-18.26421875 35.68453125 -18.26421875 35.68453125 -17.22265625 37.16796875 C-15.56131169 39.27068544 -14.65953195 40.11993251 -12.0625 40.88671875 C-8.37235664 41.31873553 -5.84725152 41.41783384 -2.28515625 40.23046875 C-2.06247917 36.85223459 -2.06247917 36.85223459 -3.28515625 33.23046875 C-6.04727995 31.33464748 -9.15405616 30.37838324 -12.28515625 29.23046875 C-14.08976116 28.42553706 -15.88195138 27.59215393 -17.66015625 26.73046875 C-18.47226562 26.34890625 -19.284375 25.96734375 -20.12109375 25.57421875 C-23.23266726 23.64212256 -24.872379 21.64383894 -25.90234375 18.1171875 C-26.53907174 12.68570481 -26.31756296 9.00880659 -23.28515625 4.23046875 C-17.17783958 -1.93932686 -8.04031891 -2.70759457 0 0 Z "
     fill="#FEFEFE"
     transform="translate(327.28515625,454.76953125)"
     id="path5"
     style="fill:#202a25;fill-opacity:1" />
  <path
     d="M0 0 C3.3 0 6.6 0 10 0 C10 5.28 10 10.56 10 16 C13.96 16 17.92 16 22 16 C22 18.97 22 21.94 22 25 C18.04 25 14.08 25 10 25 C10 38.53 10 52.06 10 66 C6.7 66 3.4 66 0 66 C0 52.47 0 38.94 0 25 C-2.97 25 -5.94 25 -9 25 C-9 22.03 -9 19.06 -9 16 C-6.03 16 -3.06 16 0 16 C0 10.72 0 5.44 0 0 Z "
     fill="#FEFEFE"
     transform="translate(243,439)"
     id="path6"
     style="fill:#202a25;fill-opacity:1" />
  <path
     d="M0 0 C3.3 0 6.6 0 10 0 C10 16.5 10 33 10 50 C6.7 50 3.4 50 0 50 C0 33.5 0 17 0 0 Z "
     fill="#FFFFFF"
     transform="translate(348,455)"
     id="path7"
     style="fill:#202a25;fill-opacity:1" />
  <path
     d="M0 0 C3.3 0 6.6 0 10 0 C10 16.5 10 33 10 50 C6.7 50 3.4 50 0 50 C0 33.5 0 17 0 0 Z "
     fill="#FFFFFF"
     transform="translate(276,455)"
     id="path8"
     style="fill:#202a25;fill-opacity:1" />
  <path
     d="M0 0 C3.70979513 -0.28782893 7.29904165 -0.44198495 11 0 C13.6875 2.375 13.6875 2.375 15 5 C15 5.66 15 6.32 15 7 C15.78375 6.21625 16.5675 5.4325 17.375 4.625 C22 0 22 0 24.3828125 -0.1953125 C25.28773438 -0.17210937 26.19265625 -0.14890625 27.125 -0.125 C28.03507812 -0.10695313 28.94515625 -0.08890625 29.8828125 -0.0703125 C30.58148438 -0.04710937 31.28015625 -0.02390625 32 0 C30.5661552 2.21728578 29.11353538 4.41653844 27.625 6.59765625 C26.66608133 8.01528842 25.7356985 9.4542682 24.875 10.93359375 C23.20707135 13.49067554 21.44807802 14.84069954 18.59375 15.85546875 C15.15838659 16.34278856 13.25895119 16.2611101 10 15 C5.78816361 11.06182185 2.83289505 5.97139282 0 1 C0 0.67 0 0.34 0 0 Z "
     fill="#FEFEFE"
     transform="translate(302,435)"
     id="path9"
     style="fill:#202a25;fill-opacity:1" />
  <path
     d="M0 0 C1.71256087 0.14385511 3.42398455 0.31733585 5.125 0.5625 C3.02268688 6.17203741 0.50776391 11.38654528 -3.875 15.5625 C-7.36190708 16.39996677 -10.36528758 16.19806161 -13.875 15.5625 C-11.85315686 7.67731175 -9.0097189 -0.03478656 0 0 Z "
     fill="#FEFEFE"
     transform="translate(213.875,434.4375)"
     id="path10"
     style="fill:#202a25;fill-opacity:1" />
  <path
     d="M0 0 C1.47919922 0.06960938 1.47919922 0.06960938 2.98828125 0.140625 C3.98214844 0.17671875 4.97601563 0.2128125 6 0.25 C7.13888672 0.31960938 7.13888672 0.31960938 8.30078125 0.390625 C7.01541568 2.76360759 5.68528116 5.07591421 4.30078125 7.390625 C3.88828125 8.13183594 3.47578125 8.87304688 3.05078125 9.63671875 C1.61050009 11.93216685 0.39503835 13.66154298 -1.69921875 15.390625 C-5.13466983 16.05405792 -8.24852528 15.88163277 -11.69921875 15.390625 C-10.76574517 13.63847394 -9.82726555 11.88898937 -8.88671875 10.140625 C-8.36464844 9.16609375 -7.84257812 8.1915625 -7.3046875 7.1875 C-6.77488281 6.26453125 -6.24507813 5.3415625 -5.69921875 4.390625 C-5.25578125 3.6171875 -4.81234375 2.84375 -4.35546875 2.046875 C-2.69921875 0.390625 -2.69921875 0.390625 0 0 Z "
     fill="#FEFEFE"
     transform="translate(359.69921875,434.609375)"
     id="path11"
     style="fill:#202a25;fill-opacity:1" />
  <path
     d="M0 0 C2.4375 2.125 2.4375 2.125 4 5 C3.85384044 8.72706873 3.65788293 10.34211707 1 13 C-6.10659898 13.67681895 -6.10659898 13.67681895 -9.0625 11.4375 C-10.40411569 7.9492992 -9.92678615 5.57474656 -9 2 C-5.50434664 -0.33043558 -4.1134271 -0.58763244 0 0 Z "
     fill="#FEFEFE"
     transform="translate(284,436)"
     id="path12"
     style="fill:#202a25;fill-opacity:1" />
</svg>
