<?xml version="1.0" encoding="UTF-8" standalone="no"?>
<!-- Generator: Adobe Illustrator 16.0.0, SVG Export Plug-In . SVG Version: 6.00 Build 0)  -->

<svg
   version="1.1"
   id="Layer_1"
   x="0px"
   y="0px"
   width="1000px"
   height="1000px"
   viewBox="0 0 1000 1000"
   enable-background="new 0 0 1000 1000"
   xml:space="preserve"
   sodipodi:docname="restaurace_mlynec.svg"
   inkscape:version="1.3.1 (9b9bdc1480, 2023-11-25, custom)"
   xmlns:inkscape="http://www.inkscape.org/namespaces/inkscape"
   xmlns:sodipodi="http://sodipodi.sourceforge.net/DTD/sodipodi-0.dtd"
   xmlns="http://www.w3.org/2000/svg"
   xmlns:svg="http://www.w3.org/2000/svg"><defs
   id="defs7" /><sodipodi:namedview
   id="namedview7"
   pagecolor="#505050"
   bordercolor="#eeeeee"
   borderopacity="1"
   inkscape:showpageshadow="0"
   inkscape:pageopacity="0"
   inkscape:pagecheckerboard="0"
   inkscape:deskcolor="#d1d1d1"
   inkscape:zoom="0.445"
   inkscape:cx="326.96629"
   inkscape:cy="465.16854"
   inkscape:window-width="1920"
   inkscape:window-height="1130"
   inkscape:window-x="0"
   inkscape:window-y="0"
   inkscape:window-maximized="1"
   inkscape:current-layer="g7" />
<g
   id="g7">
	<polygon
   fill="#CCA783"
   points="320.685,963.989 304.085,858.194 269.386,963.989 253.551,963.989 218.852,858.194    203.017,963.989 185.474,963.989 205.653,831.986 227.904,831.986 261.66,936.64 295.41,831.986 317.477,831.986 338.402,963.989     "
   id="polygon1"
   style="fill:#202a25;fill-opacity:1" />
	<rect
   x="369.327"
   y="824.251"
   fill="#CCA783"
   width="17.156"
   height="139.729"
   id="rect1"
   style="fill:#202a25;fill-opacity:1" />
	<path
   fill="#CCA783"
   d="M449.645,950.216l-37.704-84.852h18.481l27.897,66.002l27.34-66.002h18.67L444.749,1000h-17.533   L449.645,950.216z M486.047,825.571l-19.986,28.482h-16.977l17.161-28.482H486.047z"
   id="path1"
   style="fill:#202a25;fill-opacity:1" />
	<path
   fill="#CCA783"
   d="M542.048,865.354v13.397c5.85-9.812,15.274-15.472,27.529-15.472c19.425,0,34.331,9.82,34.331,40.17v60.539   H586.55V907.8c0-19.246-5.283-29.236-19.049-29.236c-15.453,0-23.943,15.463-23.943,33.368v52.058h-17.16v-98.635H542.048z"
   id="path2"
   style="fill:#202a25;fill-opacity:1" />
	<path
   fill="#CCA783"
   d="M649.711,918.913c0.755,20.17,13.774,31.869,29.991,31.869c14.708,0,22.066-7.916,27.34-16.209   l13.01,10.935c-8.292,12.642-21.867,20.925-39.217,20.925c-27.162,0-48.086-18.104-48.086-52.982   c0-30.16,20.547-50.35,44.689-50.35c26.406,0,42.048,19.613,42.613,45.066v10.746H649.711z M703.646,904.017   c-0.755-12.246-9.236-25.274-26.208-25.274c-15.086,0-25.463,11.896-27.152,25.274H703.646z"
   id="path3"
   style="fill:#202a25;fill-opacity:1" />
	<path
   fill="#CCA783"
   d="M814.526,960.216c-6.972,4.708-15.84,6.227-25.076,6.227c-23.765,0-48.096-18.104-48.096-52.049   c0-34.133,24.52-51.293,47.143-51.293c11.689,0,18.303,1.887,26.029,6.406v19.424h-0.566c-5.85-5.65-12.264-9.227-23.377-9.227   c-15.096,0-32.256,11.491-32.256,34.689c0,22.436,16.981,35.266,32.443,35.266c11.313,0,17.539-3.773,23.189-9.047l0.566,0.367   V960.216z"
   id="path4"
   style="fill:#202a25;fill-opacity:1" />
	<path
   fill="#CCA783"
   d="M877.094,754.192H122.906V0h754.188V754.192z M156.516,720.587h686.974V33.609H156.516V720.587z"
   id="path5"
   style="fill:#202a25;fill-opacity:1" />
	<path
   fill="#FFFFFF"
   d="M383.922,160.409l0.443,32.883c14.666-24.43,38.218-38.218,68.87-38.218   c28.444,0,50.227,17.779,57.775,35.996c16.888-22.208,37.321-35.996,68.879-35.996c42.661,0,72.879,25.331,72.879,80.879v116.536   H611.88V249.289c0-32.444-12-57.77-39.104-57.77c-32.888,0-52.435,25.326-52.435,70.209v90.762h-40.875V249.289   c0-33.774-10.222-57.77-37.784-57.77c-29.774,0-53.317,23.996-53.317,66.657v94.313h-40.439v-192.08H383.922z"
   id="path6"
   style="fill:#202a25;fill-opacity:1" />
	<path
   fill="#CCA783"
   d="M347.926,579.782v-192.08h40.439v94.313c0,42.661,23.553,66.662,53.327,66.662   c27.553,0,37.774-24.001,37.774-57.775v-103.2h40.875v90.761c0,44.883,19.547,70.214,52.435,70.214   c27.123,0,39.104-25.331,39.104-57.775v-103.2h40.888v116.531c0,55.549-30.218,80.879-72.879,80.879   c-31.558,0-51.991-13.773-68.879-35.991c-7.548,18.218-29.331,35.991-57.775,35.991c-30.652,0-54.204-13.773-68.87-38.217   l-0.443,32.887H347.926z"
   id="path7"
   style="fill:#202a25;fill-opacity:1" />
</g>
</svg>
