<?xml version="1.0" encoding="UTF-8" standalone="no"?>
<svg
   version="1.0"
   width="248.01352pt"
   height="121.51311pt"
   viewBox="0 0 248.01352 121.51311"
   preserveAspectRatio="xMidYMid"
   id="svg11"
   sodipodi:docname="trojksky_zamek.svg"
   inkscape:version="1.3.1 (9b9bdc1480, 2023-11-25, custom)"
   xmlns:inkscape="http://www.inkscape.org/namespaces/inkscape"
   xmlns:sodipodi="http://sodipodi.sourceforge.net/DTD/sodipodi-0.dtd"
   xmlns="http://www.w3.org/2000/svg"
   xmlns:svg="http://www.w3.org/2000/svg">
  <defs
     id="defs11" />
  <sodipodi:namedview
     id="namedview11"
     pagecolor="#505050"
     bordercolor="#eeeeee"
     borderopacity="1"
     inkscape:showpageshadow="0"
     inkscape:pageopacity="0"
     inkscape:pagecheckerboard="0"
     inkscape:deskcolor="#d1d1d1"
     inkscape:document-units="pt"
     inkscape:zoom="0.70575"
     inkscape:cx="150.90329"
     inkscape:cy="77.931279"
     inkscape:window-width="1920"
     inkscape:window-height="1130"
     inkscape:window-x="0"
     inkscape:window-y="0"
     inkscape:window-maximized="1"
     inkscape:current-layer="g11" />
  <g
     transform="matrix(0.1,0,0,-0.1,-386.67877,339.59384)"
     fill="#000000"
     stroke="none"
     id="g11">
    <g
       id="g12"
       style="fill:#202a25;fill-opacity:1">
      <path
         d="m 4313,3380 c -18,-11 -33,-21 -33,-23 0,-2 20,1 45,7 25,6 44,15 42,20 -6,17 -21,16 -54,-4 z"
         id="path1"
         style="fill:#202a25;fill-opacity:1" />
      <path
         d="m 3887,3363 c -4,-3 -7,-17 -7,-30 v -23 l 20,20 c 16,16 33,20 96,20 66,0 75,-2 70,-16 -9,-22 -188,-298 -199,-305 -4,-3 49,-9 119,-13 70,-4 131,-3 135,1 5,5 11,24 14,43 l 6,35 -16,-27 c -15,-27 -18,-28 -105,-28 -50,0 -90,2 -90,5 0,3 45,75 100,160 55,85 100,157 100,160 0,8 -236,6 -243,-2 z"
         id="path2"
         style="fill:#202a25;fill-opacity:1" />
      <path
         d="m 4246,3193 c -26,-71 -56,-140 -66,-154 l -18,-26 28,1 c 20,1 27,6 28,21 0,11 7,37 16,58 15,37 16,38 63,35 47,-3 48,-4 67,-53 11,-27 21,-51 21,-52 1,-2 17,-6 36,-9 l 34,-7 -22,24 c -12,13 -45,84 -74,157 -29,72 -55,132 -59,132 -4,0 -28,-57 -54,-127 z m 83,-35 c 1,-14 -7,-18 -40,-18 -45,0 -45,0 -11,79 l 15,36 18,-40 c 9,-22 18,-48 18,-57 z"
         id="path3"
         style="fill:#202a25;fill-opacity:1" />
      <path
         d="m 4540,3312 c 0,-43 -34,-279 -41,-288 -6,-8 -1,-11 18,-10 26,1 28,4 25,36 -1,19 1,68 5,109 l 8,74 53,-106 c 29,-59 56,-107 60,-107 4,0 32,48 62,108 l 54,107 7,-55 c 4,-30 7,-79 8,-107 1,-45 4,-53 20,-53 11,0 28,-3 38,-7 17,-6 17,-5 2,13 -11,13 -22,62 -33,153 -8,74 -18,136 -20,139 -3,2 -32,-54 -66,-124 l -61,-129 -61,120 c -60,121 -78,150 -78,127 z"
         id="path4"
         style="fill:#202a25;fill-opacity:1" />
      <path
         d="m 4949,3306 c 8,-10 11,-56 9,-149 l -3,-135 70,-7 c 59,-6 71,-4 82,11 20,27 16,39 -6,20 -13,-12 -32,-16 -58,-14 l -38,3 -3,68 -3,67 h 31 c 17,0 40,-5 51,-10 16,-9 19,-7 19,8 0,17 -6,18 -50,14 l -50,-5 v 62 61 h 40 c 27,0 42,-6 49,-17 6,-10 11,-13 11,-6 0,6 3,18 6,27 5,14 -6,16 -81,16 -74,0 -86,-2 -76,-14 z"
         id="path5"
         style="fill:#202a25;fill-opacity:1" />
      <path
         d="m 5208,3308 c 15,-15 17,-269 2,-284 -6,-6 4,-9 30,-9 26,0 36,3 30,9 -6,6 -10,39 -10,75 v 66 l 70,-72 c 52,-53 79,-73 106,-78 43,-8 57,1 23,14 -13,5 -57,42 -97,83 l -72,74 52,50 c 29,28 64,58 78,68 l 24,16 h -37 c -28,0 -37,-4 -37,-17 0,-9 -25,-40 -55,-70 l -55,-54 v 58 c 0,33 5,64 12,71 9,9 2,12 -32,12 -34,0 -41,-3 -32,-12 z"
         id="path6"
         style="fill:#202a25;fill-opacity:1" />
      <path
         d="m 4159,2842 c -5,-13 -9,-33 -9,-44 0,-20 1,-20 18,2 15,19 31,24 95,28 l 77,5 v -242 c 0,-241 0,-242 -22,-251 -16,-6 4,-9 67,-8 51,0 77,3 60,7 -20,4 -31,14 -36,31 -4,14 -7,123 -8,243 l -1,217 h 43 c 80,0 117,-11 132,-39 14,-26 14,-25 15,21 v 47 l -211,3 -211,3 z"
         id="path7"
         style="fill:#202a25;fill-opacity:1" />
      <path
         d="m 5305,2781 c -111,-29 -179,-117 -179,-231 0,-147 107,-239 263,-228 119,8 207,96 218,216 9,99 -33,179 -118,223 -43,22 -138,32 -184,20 z m 145,-40 c 107,-56 134,-259 46,-347 -40,-40 -100,-58 -156,-45 -55,12 -85,33 -118,83 -23,35 -28,54 -30,122 -3,70 0,87 20,125 14,26 38,51 58,62 46,25 134,25 180,0 z"
         id="path8"
         style="fill:#202a25;fill-opacity:1" />
      <path
         d="m 6101,2768 c -85,-219 -154,-396 -158,-405 -3,-7 -19,-17 -37,-22 -26,-8 -20,-9 39,-9 39,0 64,2 58,5 -18,7 -16,40 6,98 l 19,50 78,3 79,3 28,-72 c 15,-39 25,-75 21,-80 -3,-5 24,-8 63,-8 37,1 58,4 47,6 -12,2 -29,12 -38,22 -13,14 -98,212 -177,409 -4,12 -11,22 -14,22 -3,0 -9,-10 -14,-22 z m 38,-159 c 17,-45 30,-84 27,-86 -2,-2 -31,-3 -64,-1 l -59,3 30,83 c 16,45 31,82 32,82 2,0 17,-37 34,-81 z"
         id="path9"
         style="fill:#202a25;fill-opacity:1" />
      <path
         d="m 4680,2767 25,-13 3,-174 c 3,-197 -1,-237 -26,-243 -9,-3 19,-5 63,-5 44,0 71,2 60,5 -35,8 -45,33 -45,110 v 73 h 44 c 43,0 45,-2 105,-80 79,-101 92,-110 161,-109 30,1 46,3 35,6 -43,9 -69,30 -136,110 l -71,84 31,34 c 43,50 55,100 33,145 -27,55 -68,70 -197,70 -95,0 -107,-2 -85,-13 z m 200,-32 c 32,-29 45,-88 32,-134 -16,-53 -31,-63 -94,-59 l -53,3 -3,94 c -1,52 0,101 3,109 7,20 89,10 115,-13 z"
         id="path10"
         style="fill:#202a25;fill-opacity:1" />
      <path
         d="m 5717,2770 c 15,-6 24,-21 29,-46 10,-56 -2,-414 -15,-449 -7,-16 -26,-45 -44,-62 -47,-49 -17,-40 42,13 33,29 54,58 61,82 5,20 10,128 10,239 0,197 1,202 22,217 21,15 18,16 -52,15 -54,0 -69,-3 -53,-9 z"
         id="path11"
         style="fill:#202a25;fill-opacity:1" />
    </g>
  </g>
</svg>
