<?xml version="1.0" encoding="UTF-8" standalone="no"?>
<svg
   xmlns:dc="http://purl.org/dc/elements/1.1/"
   xmlns:cc="http://creativecommons.org/ns#"
   xmlns:rdf="http://www.w3.org/1999/02/22-rdf-syntax-ns#"
   xmlns:svg="http://www.w3.org/2000/svg"
   xmlns="http://www.w3.org/2000/svg"
   xmlns:sodipodi="http://sodipodi.sourceforge.net/DTD/sodipodi-0.dtd"
   xmlns:inkscape="http://www.inkscape.org/namespaces/inkscape"
   width="50.768745mm"
   height="37.593636mm"
   viewBox="0 0 50.768745 37.593636"
   version="1.1"
   id="svg8"
   sodipodi:docname="cathedra_logo.svg"
   inkscape:version="0.92.3 (2405546, 2018-03-11)">
  <sodipodi:namedview
     pagecolor="#ffffff"
     bordercolor="#666666"
     borderopacity="1"
     objecttolerance="10"
     gridtolerance="10"
     guidetolerance="10"
     inkscape:pageopacity="0"
     inkscape:pageshadow="2"
     inkscape:window-width="1920"
     inkscape:window-height="1142"
     id="namedview1931"
     showgrid="false"
     inkscape:zoom="4.1420693"
     inkscape:cx="76.888245"
     inkscape:cy="73.11412"
     inkscape:window-x="0"
     inkscape:window-y="0"
     inkscape:window-maximized="1"
     inkscape:current-layer="svg8" />
  <defs
     id="defs2" />
  <metadata
     id="metadata5">
    <rdf:RDF>
      <cc:Work
         rdf:about="">
        <dc:format>image/svg+xml</dc:format>
        <dc:type
           rdf:resource="http://purl.org/dc/dcmitype/StillImage" />
        <dc:title></dc:title>
      </cc:Work>
    </rdf:RDF>
  </metadata>
  <g
     id="flowRoot29"
     style="font-style:normal;font-weight:normal;font-size:40px;line-height:1.25;font-family:sans-serif;letter-spacing:0px;word-spacing:0px;opacity:1;fill:#110e0a;fill-opacity:0.9644013;stroke:none;stroke-opacity:0.83137255"
     transform="matrix(0.25739029,0,0,0.25739029,89.27132,-54.99176)"
     aria-label="C. Cathedra">
    <g
       id="g1645"
       style="fill:#110e0a;fill-opacity:0.9644013"
       transform="translate(-584.87833,10.101526)">
      <path
         d="m 331.24772,280.29511 q -7.56,0 -14.18667,-2.8 -6.53333,-2.89333 -11.48,-7.93333 -4.85333,-5.13334 -7.65333,-11.94667 -2.70667,-6.81333 -2.70667,-14.74667 0,-7.84 2.70667,-14.56 2.8,-6.81333 7.65333,-11.85333 4.94667,-5.13333 11.48,-8.02667 6.53334,-2.89333 14.18667,-2.89333 7.18667,0 12.32,1.86667 5.22667,1.86666 10.45334,6.16 0.74666,0.56 1.12,1.21333 0.46666,0.56 0.56,1.21333 0.18666,0.56 0.18666,1.4 0,1.77334 -1.30666,2.98667 -1.21334,1.12 -2.98667,1.30667 -1.77333,0.0933 -3.45333,-1.21334 -3.45334,-2.98666 -7.18667,-4.57333 -3.64,-1.58667 -9.70667,-1.58667 -5.50667,0 -10.36,2.24 -4.85333,2.24 -8.58667,6.16 -3.64,3.92 -5.69333,9.14667 -2.05333,5.13333 -2.05333,11.01333 0,5.97334 2.05333,11.2 2.05333,5.13334 5.69333,9.05334 3.73334,3.92 8.58667,6.16 4.85333,2.14666 10.36,2.14666 4.76,0 8.96,-1.58666 4.29333,-1.68 8.21334,-4.57334 1.68,-1.21333 3.26666,-1.02666 1.68,0.0933 2.8,1.30666 1.12,1.12 1.12,3.17334 0,0.93333 -0.37333,1.86666 -0.37333,0.84 -1.12,1.58667 -5.04,4.01333 -10.82667,6.06667 -5.69333,2.05333 -12.04,2.05333 z"
         style="font-style:normal;font-variant:normal;font-weight:normal;font-stretch:normal;font-size:93.33333588px;font-family:Comfortaa;-inkscape-font-specification:Comfortaa;text-align:center;text-anchor:middle;fill:#110e0a;fill-opacity:0.9644013;stroke:none;stroke-opacity:0.83137255"
         id="path345"
         inkscape:connector-curvature="0" />
      <path
         d="m 372.90647,280.85511 q -2.61333,0 -4.57333,-1.86667 -1.86667,-1.96 -1.86667,-4.57333 0,-2.70667 1.86667,-4.57333 1.96,-1.96 4.57333,-1.96 2.70667,0 4.57334,1.96 1.86666,1.86666 1.86666,4.57333 0,2.61333 -1.86666,4.57333 -1.86667,1.86667 -4.57334,1.86667 z"
         style="font-style:normal;font-variant:normal;font-weight:normal;font-stretch:normal;font-size:93.33333588px;font-family:Comfortaa;-inkscape-font-specification:Comfortaa;text-align:center;text-anchor:middle;fill:#110e0a;fill-opacity:0.9644013;stroke:none;stroke-opacity:0.83137255"
         id="path347"
         inkscape:connector-curvature="0" />
      <path
         d="m 256.16699,347.62129 q -3.24,0 -6.08,-1.2 -2.8,-1.24 -4.92,-3.4 -2.08,-2.2 -3.28,-5.12 -1.16,-2.92 -1.16,-6.32 0,-3.36 1.16,-6.24 1.2,-2.92 3.28,-5.08 2.12,-2.2 4.92,-3.44 2.8,-1.24 6.08,-1.24 3.08,0 5.28,0.8 2.24,0.8 4.48,2.64 0.32,0.24 0.48,0.52 0.2,0.24 0.24,0.52 0.08,0.24 0.08,0.6 0,0.76 -0.56,1.28 -0.52,0.48 -1.28,0.56 -0.76,0.04 -1.48,-0.52 -1.48,-1.28 -3.08,-1.96 -1.56,-0.68 -4.16,-0.68 -2.36,0 -4.44,0.96 -2.08,0.96 -3.68,2.64 -1.56,1.68 -2.44,3.92 -0.88,2.2 -0.88,4.72 0,2.56 0.88,4.8 0.88,2.2 2.44,3.88 1.6,1.68 3.68,2.64 2.08,0.92 4.44,0.92 2.04,0 3.84,-0.68 1.84,-0.72 3.52,-1.96 0.72,-0.52 1.4,-0.44 0.72,0.04 1.2,0.56 0.48,0.48 0.48,1.36 0,0.4 -0.16,0.8 -0.16,0.36 -0.48,0.68 -2.16,1.72 -4.64,2.6 -2.44,0.88 -5.16,0.88 z"
         style="font-style:normal;font-variant:normal;font-weight:normal;font-stretch:normal;font-family:Comfortaa;-inkscape-font-specification:Comfortaa;text-align:center;text-anchor:middle;fill:#110e0a;fill-opacity:0.9644013;stroke:none;stroke-opacity:0.83137255"
         id="path349"
         inkscape:connector-curvature="0" />
      <path
         d="m 280.41824,347.38129 q -2.92,0 -5.24,-1.44 -2.32,-1.48 -3.68,-3.96 -1.32,-2.52 -1.32,-5.68 0,-3.16 1.44,-5.68 1.48,-2.52 3.96,-3.96 2.52,-1.48 5.64,-1.48 3.12,0 5.6,1.48 2.48,1.44 3.92,3.96 1.48,2.52 1.48,5.68 h -1.56 q 0,3.16 -1.36,5.68 -1.32,2.48 -3.64,3.96 -2.32,1.44 -5.24,1.44 z m 0.8,-3.6 q 2.04,0 3.64,-0.96 1.6,-1 2.52,-2.68 0.92,-1.72 0.92,-3.84 0,-2.16 -0.92,-3.84 -0.92,-1.72 -2.52,-2.68 -1.6,-1 -3.64,-1 -2,0 -3.64,1 -1.6,0.96 -2.56,2.68 -0.92,1.68 -0.92,3.84 0,2.12 0.92,3.84 0.96,1.68 2.56,2.68 1.64,0.96 3.64,0.96 z m 8.96,3.48 q -0.88,0 -1.48,-0.56 -0.56,-0.6 -0.56,-1.48 v -6.12 l 0.76,-4.24 3.32,1.44 v 8.92 q 0,0.88 -0.6,1.48 -0.56,0.56 -1.44,0.56 z"
         style="font-style:normal;font-variant:normal;font-weight:normal;font-stretch:normal;font-family:Comfortaa;-inkscape-font-specification:Comfortaa;text-align:center;text-anchor:middle;fill:#110e0a;fill-opacity:0.9644013;stroke:none;stroke-opacity:0.83137255"
         id="path351"
         inkscape:connector-curvature="0" />
      <path
         d="m 306.28949,347.22129 q -2,0 -3.6,-1 -1.6,-1.04 -2.52,-2.8 -0.92,-1.76 -0.92,-3.96 v -19.08 q 0,-0.88 0.56,-1.44 0.56,-0.56 1.44,-0.56 0.88,0 1.44,0.56 0.56,0.56 0.56,1.44 v 19.08 q 0,1.6 0.88,2.68 0.88,1.08 2.16,1.08 h 1.36 q 0.72,0 1.2,0.56 0.52,0.56 0.52,1.44 0,0.88 -0.68,1.44 -0.64,0.56 -1.68,0.56 z m -8.88,-17.64 q -0.84,0 -1.36,-0.48 -0.52,-0.48 -0.52,-1.2 0,-0.8 0.52,-1.28 0.52,-0.48 1.36,-0.48 h 9.24 q 0.84,0 1.36,0.48 0.52,0.48 0.52,1.28 0,0.72 -0.52,1.2 -0.52,0.48 -1.36,0.48 z"
         style="font-style:normal;font-variant:normal;font-weight:normal;font-stretch:normal;font-family:Comfortaa;-inkscape-font-specification:Comfortaa;text-align:center;text-anchor:middle;fill:#110e0a;fill-opacity:0.9644013;stroke:none;stroke-opacity:0.83137255"
         id="path353"
         inkscape:connector-curvature="0" />
      <path
         d="m 332.82512,347.26129 q -0.88,0 -1.48,-0.56 -0.56,-0.6 -0.56,-1.48 v -9.84 q 0,-2.28 -0.84,-3.72 -0.84,-1.44 -2.28,-2.12 -1.4,-0.72 -3.24,-0.72 -1.68,0 -3.04,0.68 -1.36,0.68 -2.16,1.84 -0.8,1.12 -0.8,2.6 h -2.52 q 0,-2.52 1.2,-4.48 1.24,-2 3.36,-3.16 2.12,-1.16 4.76,-1.16 2.76,0 4.92,1.2 2.2,1.16 3.44,3.44 1.28,2.28 1.28,5.6 v 9.84 q 0,0.88 -0.6,1.48 -0.56,0.56 -1.44,0.56 z m -16.44,0 q -0.88,0 -1.48,-0.56 -0.56,-0.6 -0.56,-1.48 v -17.84 q 0,-0.92 0.56,-1.48 0.6,-0.56 1.48,-0.56 0.92,0 1.48,0.56 0.56,0.56 0.56,1.48 v 17.84 q 0,0.88 -0.56,1.48 -0.56,0.56 -1.48,0.56 z m 0,-8 q -0.88,0 -1.48,-0.56 -0.56,-0.6 -0.56,-1.48 v -19.2 q 0,-0.92 0.56,-1.48 0.6,-0.56 1.48,-0.56 0.92,0 1.48,0.56 0.56,0.56 0.56,1.48 v 19.2 q 0,0.88 -0.56,1.48 -0.56,0.56 -1.48,0.56 z"
         style="font-style:normal;font-variant:normal;font-weight:normal;font-stretch:normal;font-family:Comfortaa;-inkscape-font-specification:Comfortaa;text-align:center;text-anchor:middle;fill:#110e0a;fill-opacity:0.9644013;stroke:none;stroke-opacity:0.83137255"
         id="path355"
         inkscape:connector-curvature="0" />
      <path
         d="m 351.89074,347.38129 q -3.32,0 -5.92,-1.4 -2.56,-1.44 -4.04,-3.92 -1.44,-2.52 -1.44,-5.76 0,-3.28 1.36,-5.76 1.4,-2.52 3.84,-3.92 2.44,-1.44 5.6,-1.44 3.12,0 5.36,1.4 2.24,1.36 3.4,3.8 1.2,2.4 1.2,5.56 0,0.76 -0.52,1.28 -0.52,0.48 -1.32,0.48 h -16.12 v -3.2 h 16 l -1.64,1.12 q -0.04,-2 -0.8,-3.56 -0.76,-1.6 -2.16,-2.52 -1.4,-0.92 -3.4,-0.92 -2.28,0 -3.92,1 -1.6,1 -2.44,2.76 -0.84,1.72 -0.84,3.92 0,2.2 1,3.92 1,1.72 2.76,2.72 1.76,1 4.04,1 1.24,0 2.52,-0.44 1.32,-0.48 2.12,-1.08 0.6,-0.44 1.28,-0.44 0.72,-0.04 1.24,0.4 0.68,0.6 0.72,1.32 0.04,0.72 -0.64,1.24 -1.36,1.08 -3.4,1.76 -2,0.68 -3.84,0.68 z"
         style="font-style:normal;font-variant:normal;font-weight:normal;font-stretch:normal;font-family:Comfortaa;-inkscape-font-specification:Comfortaa;text-align:center;text-anchor:middle;fill:#110e0a;fill-opacity:0.9644013;stroke:none;stroke-opacity:0.83137255"
         id="path357"
         inkscape:connector-curvature="0" />
      <path
         d="m 375.59324,347.38129 q -3.12,0 -5.64,-1.44 -2.48,-1.48 -3.96,-4 -1.44,-2.52 -1.44,-5.68 0,-3.16 1.32,-5.64 1.36,-2.52 3.68,-3.96 2.32,-1.48 5.24,-1.48 2.36,0 4.36,1 2,0.96 3.36,2.64 v -10.8 q 0,-0.92 0.56,-1.48 0.6,-0.56 1.48,-0.56 0.92,0 1.48,0.56 0.56,0.56 0.56,1.48 v 18.24 q 0,3.16 -1.48,5.68 -1.44,2.52 -3.92,4 -2.48,1.44 -5.6,1.44 z m 0,-3.6 q 2.04,0 3.64,-0.96 1.6,-1 2.52,-2.72 0.92,-1.72 0.92,-3.84 0,-2.16 -0.92,-3.84 -0.92,-1.68 -2.52,-2.64 -1.6,-1 -3.64,-1 -2,0 -3.64,1 -1.6,0.96 -2.56,2.64 -0.92,1.68 -0.92,3.84 0,2.12 0.92,3.84 0.96,1.72 2.56,2.72 1.64,0.96 3.64,0.96 z"
         style="font-style:normal;font-variant:normal;font-weight:normal;font-stretch:normal;font-family:Comfortaa;-inkscape-font-specification:Comfortaa;text-align:center;text-anchor:middle;fill:#110e0a;fill-opacity:0.9644013;stroke:none;stroke-opacity:0.83137255"
         id="path359"
         inkscape:connector-curvature="0" />
      <path
         d="m 395.75824,333.54129 q 0,-2.4 1.16,-4.28 1.2,-1.92 3.2,-3.04 2,-1.12 4.4,-1.12 2.4,0 3.56,0.8 1.2,0.76 0.92,1.84 -0.12,0.56 -0.48,0.88 -0.32,0.28 -0.76,0.36 -0.44,0.08 -0.96,-0.04 -2.56,-0.52 -4.6,-0.08 -2.04,0.44 -3.24,1.64 -1.16,1.2 -1.16,3.04 z m 0.04,13.68 q -0.96,0 -1.48,-0.48 -0.52,-0.52 -0.52,-1.52 v -17.88 q 0,-0.96 0.52,-1.48 0.52,-0.52 1.48,-0.52 1,0 1.48,0.52 0.52,0.48 0.52,1.48 v 17.88 q 0,0.96 -0.52,1.48 -0.48,0.52 -1.48,0.52 z"
         style="font-style:normal;font-variant:normal;font-weight:normal;font-stretch:normal;font-family:Comfortaa;-inkscape-font-specification:Comfortaa;text-align:center;text-anchor:middle;fill:#110e0a;fill-opacity:0.9644013;stroke:none;stroke-opacity:0.83137255"
         id="path361"
         inkscape:connector-curvature="0" />
      <path
         d="m 420.80887,347.38129 q -2.92,0 -5.24,-1.44 -2.32,-1.48 -3.68,-3.96 -1.32,-2.52 -1.32,-5.68 0,-3.16 1.44,-5.68 1.48,-2.52 3.96,-3.96 2.52,-1.48 5.64,-1.48 3.12,0 5.6,1.48 2.48,1.44 3.92,3.96 1.48,2.52 1.48,5.68 h -1.56 q 0,3.16 -1.36,5.68 -1.32,2.48 -3.64,3.96 -2.32,1.44 -5.24,1.44 z m 0.8,-3.6 q 2.04,0 3.64,-0.96 1.6,-1 2.52,-2.68 0.92,-1.72 0.92,-3.84 0,-2.16 -0.92,-3.84 -0.92,-1.72 -2.52,-2.68 -1.6,-1 -3.64,-1 -2,0 -3.64,1 -1.6,0.96 -2.56,2.68 -0.92,1.68 -0.92,3.84 0,2.12 0.92,3.84 0.96,1.68 2.56,2.68 1.64,0.96 3.64,0.96 z m 8.96,3.48 q -0.88,0 -1.48,-0.56 -0.56,-0.6 -0.56,-1.48 v -6.12 l 0.76,-4.24 3.32,1.44 v 8.92 q 0,0.88 -0.6,1.48 -0.56,0.56 -1.44,0.56 z"
         style="font-style:normal;font-variant:normal;font-weight:normal;font-stretch:normal;font-family:Comfortaa;-inkscape-font-specification:Comfortaa;text-align:center;text-anchor:middle;fill:#110e0a;fill-opacity:0.9644013;stroke:none;stroke-opacity:0.83137255"
         id="path363"
         inkscape:connector-curvature="0" />
    </g>
  </g>
</svg>
